{"glyphs":{"0":{"ha":732,"x_min":14,"x_max":715,"o":"m 14 486 q 25 603 14 542 q 46 717 36 664 q 72 776 53 749 q 107 831 90 803 q 153 898 126 865 q 213 956 181 931 q 284 996 246 981 q 365 1011 322 1011 q 515 967 450 1011 q 625 853 581 922 q 692 703 669 785 q 715 546 715 621 q 672 263 715 393 q 514 26 628 132 q 451 7 490 10 q 383 4 411 4 q 320 7 354 4 q 258 21 286 10 q 158 99 203 43 q 81 223 113 154 q 31 363 49 292 q 14 486 14 433 m 144 504 q 154 394 144 450 q 182 288 164 339 q 201 251 189 268 q 221 217 213 235 q 224 210 222 214 q 226 206 225 206 q 260 174 243 186 q 297 146 278 161 l 432 146 q 445 152 435 146 q 460 163 456 158 q 541 260 508 204 q 585 379 574 315 q 588 406 588 394 q 590 426 589 417 q 591 444 590 435 q 596 467 592 454 q 596 479 596 471 q 597 500 596 489 q 597 521 597 511 q 597 535 597 531 q 597 561 597 546 q 596 595 597 578 q 592 629 594 613 q 585 657 590 646 l 531 771 q 521 783 529 774 q 508 799 513 793 q 499 808 506 801 q 484 823 492 815 q 469 838 476 831 q 460 847 463 844 q 411 858 432 857 q 361 858 390 858 q 319 856 336 858 q 290 848 303 854 q 265 830 276 842 q 238 799 253 818 q 165 659 185 731 q 144 504 144 588 "},"1":{"ha":688,"x_min":13,"x_max":672,"o":"m 36 22 q 15 39 18 29 q 13 61 13 49 q 15 88 13 74 q 24 114 18 101 q 42 135 31 126 q 68 142 53 143 q 97 142 75 142 q 125 143 118 143 q 183 140 156 143 q 239 136 210 136 l 269 136 q 276 147 274 138 q 280 167 278 156 q 283 191 282 179 q 285 207 283 203 q 288 433 283 324 q 292 654 292 542 q 291 669 292 660 q 290 679 290 678 q 290 725 290 697 q 288 778 289 753 q 286 824 288 804 q 285 843 285 843 l 281 851 l 79 851 q 40 870 56 851 q 24 910 24 889 q 52 971 24 958 q 125 983 81 983 l 128 983 q 172 983 140 983 q 237 981 203 982 q 301 979 271 981 q 344 978 332 978 q 381 957 367 972 q 403 921 396 942 q 414 878 411 900 q 417 835 417 856 q 413 782 417 807 q 410 729 410 757 q 413 676 410 701 q 417 622 417 650 q 417 590 417 607 q 410 560 417 575 l 410 164 l 415 153 q 419 147 417 150 q 421 144 421 144 l 606 144 q 631 137 619 144 q 652 118 643 129 q 667 94 661 107 q 672 69 672 81 q 663 42 672 54 q 640 23 654 31 q 611 11 626 15 q 582 7 596 7 q 540 10 560 7 q 497 13 521 13 q 459 13 481 13 q 421 4 438 14 l 258 4 q 237 -10 249 -4 q 213 -15 225 -15 q 188 -8 196 -15 q 165 1 181 -1 q 153 2 163 1 q 133 4 144 3 q 113 6 122 6 q 101 7 103 7 q 88 9 97 7 q 69 14 79 11 q 49 19 58 17 q 36 22 40 21 "},"2":{"ha":699,"x_min":14,"x_max":682,"o":"m 201 89 q 166 76 181 89 q 139 49 151 64 q 113 23 126 35 q 78 11 99 11 q 28 30 42 11 q 14 82 14 49 q 60 283 14 190 q 193 442 107 376 q 256 475 222 464 q 318 506 289 486 q 332 517 321 508 q 346 528 343 526 q 356 531 347 529 q 367 533 364 533 q 377 534 368 533 q 397 536 386 535 q 415 538 407 538 q 426 539 424 539 q 489 575 463 547 q 535 631 515 603 q 539 638 538 633 q 540 642 540 642 l 540 761 q 531 781 540 763 q 514 811 521 800 q 441 862 488 853 q 347 871 394 871 q 315 870 329 871 q 288 867 301 869 q 259 861 274 865 q 226 849 244 857 q 210 833 217 842 q 204 813 204 825 q 209 797 204 806 q 220 778 214 789 q 232 756 226 768 q 238 726 238 743 q 213 642 238 681 q 136 604 188 604 q 92 618 111 604 q 61 653 74 632 q 42 698 49 674 q 35 743 35 722 q 46 798 35 771 q 68 849 57 825 q 115 917 86 886 q 179 969 143 947 q 256 1001 215 990 q 339 1013 297 1013 q 447 998 393 1013 q 544 953 500 983 q 620 880 589 924 q 660 778 651 836 q 662 749 661 771 q 663 721 663 728 q 647 601 663 653 q 599 509 631 549 q 522 441 568 469 q 415 392 475 413 q 356 375 385 381 q 296 354 326 369 q 278 346 289 351 q 256 335 267 340 q 238 326 246 329 q 231 322 231 322 l 156 240 q 155 237 156 240 q 154 231 154 233 q 154 221 154 228 q 161 213 154 214 q 188 218 176 217 q 214 219 199 219 q 278 206 249 219 q 334 178 307 193 q 390 149 361 163 q 453 136 418 136 q 495 138 479 136 q 540 147 511 140 q 565 190 560 163 q 576 242 571 217 q 592 287 581 268 q 633 306 603 306 q 664 295 654 306 q 678 269 674 285 q 682 236 682 254 q 682 204 682 219 q 651 83 682 128 q 546 13 619 39 q 511 -6 525 4 q 474 -15 497 -15 q 435 -5 449 -15 q 400 13 421 6 q 392 14 399 13 q 378 17 385 15 q 364 20 371 18 q 356 22 357 22 q 338 31 351 24 q 307 47 324 39 q 276 63 290 56 q 258 72 263 69 q 231 83 246 78 q 201 89 217 89 "},"3":{"ha":688,"x_min":14,"x_max":671,"o":"m 14 221 q 20 276 14 250 q 40 322 26 301 q 76 353 54 342 q 131 365 99 365 q 169 355 153 365 q 195 328 185 344 q 210 292 206 311 q 215 254 215 272 q 207 218 215 235 q 199 183 199 201 q 209 157 199 167 q 234 140 219 147 q 265 128 249 133 q 290 115 281 124 l 394 115 q 430 132 410 128 q 465 147 450 136 q 533 231 514 183 q 553 338 553 279 q 522 450 553 407 q 443 533 492 493 l 361 533 q 324 511 342 517 q 282 506 307 506 q 235 517 251 506 q 219 560 219 528 q 233 607 219 585 q 266 650 247 629 q 306 690 285 671 q 340 729 326 710 q 346 738 342 731 q 356 756 350 746 q 366 773 361 765 q 372 783 371 781 q 385 799 379 793 q 397 812 392 806 q 404 826 401 818 q 407 849 407 833 l 182 849 q 168 827 171 849 q 161 781 165 806 q 144 734 157 756 q 99 713 131 713 q 52 733 69 713 q 35 781 35 753 q 35 785 35 782 q 36 789 36 788 q 41 810 38 794 q 49 842 44 825 q 57 875 53 860 q 63 897 61 890 q 72 930 67 914 q 86 959 78 946 q 108 981 94 972 q 142 989 121 989 q 176 986 160 989 q 211 983 192 983 q 256 984 238 983 q 301 989 275 985 l 546 989 q 591 970 576 989 q 606 924 606 951 q 590 874 606 901 q 553 820 574 847 q 510 769 532 793 q 475 729 488 746 q 451 703 465 717 q 438 671 438 690 q 439 660 438 664 q 449 653 440 656 l 546 615 q 551 610 546 615 q 564 599 557 606 q 578 587 571 593 q 589 576 585 581 q 645 504 619 549 q 671 419 671 460 l 671 283 q 669 272 671 281 q 665 252 667 263 q 659 232 663 242 q 654 218 656 222 q 621 144 638 176 q 582 86 604 111 q 531 43 560 61 q 460 13 501 25 q 433 -2 444 7 q 406 -15 421 -11 l 353 -15 l 301 -15 q 266 -3 282 -14 q 231 13 250 7 q 222 14 229 13 q 207 17 215 15 q 191 20 199 18 q 182 22 183 22 q 122 51 153 31 q 68 98 92 71 q 29 157 44 125 q 14 221 14 189 "},"4":{"ha":732,"x_min":14,"x_max":715,"o":"m 253 67 q 260 105 253 86 q 286 135 267 124 q 339 148 311 142 q 394 157 367 154 l 406 168 l 406 249 l 394 260 q 388 260 394 260 q 376 261 381 261 q 351 260 363 261 q 324 254 339 260 l 79 254 q 35 274 56 254 q 14 317 14 293 l 14 331 q 69 438 40 385 q 128 543 99 490 q 226 726 179 635 q 335 901 274 817 q 356 939 346 918 q 377 978 365 960 q 405 1010 389 997 q 446 1022 421 1022 q 492 1009 471 1022 q 519 972 513 996 q 524 953 521 965 q 531 929 528 942 q 537 907 535 917 q 539 896 539 897 l 539 390 l 661 390 q 683 383 674 390 q 700 364 693 375 q 711 340 707 353 q 715 318 715 328 q 672 265 715 276 q 652 265 667 265 q 621 263 638 264 q 589 261 604 263 q 568 260 574 260 q 562 258 568 260 q 549 255 556 257 q 536 250 542 253 q 531 243 531 247 l 531 174 q 541 157 531 165 q 558 146 551 149 q 606 145 583 146 q 645 138 628 144 q 673 117 663 132 q 683 72 683 101 q 668 32 683 49 q 628 15 653 15 l 307 15 q 269 31 285 15 q 253 67 253 46 m 193 399 q 193 390 193 396 q 199 385 193 386 l 242 385 q 321 390 282 385 q 400 396 360 394 q 412 412 408 401 q 417 434 415 422 q 417 457 418 446 q 417 475 417 468 q 413 529 417 503 q 410 583 410 556 q 414 683 410 635 q 418 783 418 731 q 390 759 410 783 q 344 697 369 735 q 292 614 319 660 q 244 525 265 568 q 208 448 222 482 q 193 399 193 414 "},"5":{"ha":650,"x_min":14,"x_max":635,"o":"m 14 226 q 40 312 14 275 q 115 349 65 349 q 178 320 158 349 q 199 249 199 292 q 192 215 199 229 q 182 181 185 200 q 194 156 181 168 q 227 135 208 144 q 265 119 246 125 q 292 114 283 114 q 316 123 306 114 q 340 138 326 132 q 377 142 357 143 q 411 153 397 142 q 438 176 422 161 q 469 209 454 192 q 493 246 483 226 q 503 283 503 265 l 503 431 q 499 439 503 431 q 490 459 496 447 q 480 483 485 471 q 471 501 475 494 q 456 524 467 510 q 431 553 444 539 q 405 577 418 567 q 383 588 392 588 l 269 588 q 258 582 264 588 q 212 551 235 567 q 171 513 189 536 q 157 490 163 501 q 144 467 151 478 q 128 449 138 456 q 101 442 118 442 q 62 461 78 442 q 46 501 46 481 q 52 585 46 544 q 58 667 58 625 q 55 721 58 694 q 51 775 51 747 q 58 870 51 822 q 79 963 64 918 q 108 988 92 979 q 144 1001 125 997 q 184 1006 164 1006 q 224 1007 204 1007 q 302 1001 264 1007 q 381 996 340 996 q 422 999 401 996 q 463 1001 442 1001 q 540 983 507 1001 q 574 913 574 965 q 565 878 574 890 q 541 861 556 867 q 508 855 526 856 q 474 854 490 854 q 437 853 457 854 q 400 860 417 853 l 232 860 q 206 857 222 860 q 182 843 189 854 q 181 829 182 839 q 180 808 181 819 q 178 787 179 797 q 176 772 176 776 q 174 756 176 769 q 171 740 172 743 l 171 738 q 176 713 171 729 q 193 696 182 696 q 256 708 226 696 q 321 719 286 719 q 347 719 331 719 q 367 718 365 719 q 388 715 372 718 q 422 707 404 711 q 454 698 439 703 q 476 692 469 693 q 557 615 518 656 q 610 495 585 556 q 635 367 635 435 q 626 285 635 331 q 599 196 617 240 q 556 113 582 151 q 497 50 531 74 q 488 44 494 49 q 472 36 481 40 q 455 28 463 32 q 443 22 447 24 q 434 20 442 22 q 418 17 426 18 q 403 14 410 15 q 394 13 396 13 q 350 -5 372 6 q 304 -15 328 -15 q 272 -8 286 -15 q 242 7 258 0 q 204 15 224 14 q 167 22 185 15 q 115 54 142 32 q 65 106 88 76 q 28 166 43 135 q 14 226 14 197 "},"6":{"ha":672,"x_min":14,"x_max":656,"o":"m 14 411 q 28 605 14 510 q 96 788 43 700 q 106 801 99 790 q 117 815 114 813 q 123 824 118 817 q 133 839 128 831 q 144 855 139 847 q 150 864 149 863 q 169 885 156 869 q 198 917 182 900 q 228 947 214 933 q 247 967 242 961 q 292 989 274 979 q 326 1006 310 999 q 363 1018 343 1014 q 414 1022 383 1022 q 485 1013 451 1022 q 543 983 518 1003 q 583 933 568 963 q 597 861 597 903 q 571 791 597 817 q 500 765 544 765 q 431 795 450 765 q 400 869 411 825 q 392 878 397 876 q 381 881 388 881 l 372 881 q 306 841 342 869 q 239 776 269 813 q 188 699 208 739 q 168 625 168 658 l 182 625 q 190 628 182 625 q 210 635 199 631 q 234 644 222 639 q 253 651 246 649 q 277 667 263 656 q 303 679 292 679 l 378 679 q 415 660 396 668 q 454 647 435 653 q 493 633 474 640 q 531 614 513 625 q 578 566 556 599 q 617 495 600 533 q 645 419 635 457 q 656 356 656 382 l 656 336 q 619 206 642 265 q 561 103 597 146 q 472 38 525 61 q 342 14 418 14 q 209 38 264 14 q 118 103 154 61 q 60 203 82 144 q 25 331 38 261 q 23 340 25 332 q 19 356 21 347 q 15 371 17 364 q 14 379 14 378 l 14 411 m 150 368 q 158 294 150 324 q 181 240 165 264 q 223 195 197 215 q 286 151 249 175 q 291 148 288 150 q 297 146 294 146 q 317 145 301 146 q 338 144 333 144 q 444 176 401 144 q 519 260 488 207 l 525 271 l 525 396 q 510 440 525 414 q 475 488 496 465 q 431 527 454 511 q 389 543 407 543 l 264 543 q 250 537 263 543 q 232 526 238 531 q 167 459 185 497 q 150 368 150 421 "},"7":{"ha":622,"x_min":14,"x_max":607,"o":"m 231 104 q 252 269 231 188 q 301 431 274 351 q 314 450 306 442 q 329 468 322 458 q 340 492 336 479 q 350 517 343 506 q 385 567 364 538 q 425 629 406 597 q 458 693 444 661 q 471 749 471 725 q 470 756 471 751 q 464 761 469 760 q 451 762 460 761 q 432 763 442 763 q 413 765 422 764 q 400 767 404 767 q 383 770 396 767 q 367 778 371 774 l 285 854 q 267 864 275 863 q 247 865 258 865 q 206 856 225 865 q 172 830 186 846 q 151 793 158 814 q 143 751 143 772 q 147 708 143 729 q 150 667 150 688 q 147 633 150 650 q 137 600 144 615 q 117 575 129 585 q 88 565 106 565 q 43 585 64 565 q 22 631 22 606 l 22 864 q 15 890 15 879 q 14 915 14 900 q 28 976 14 947 q 82 1006 43 1006 q 118 994 104 1006 q 153 983 132 983 q 176 988 165 983 q 197 997 186 992 q 217 1007 207 1003 q 239 1011 228 1011 q 302 992 274 1011 q 356 948 331 972 q 404 904 382 924 q 449 885 426 885 q 481 901 471 885 q 497 938 490 918 q 515 974 504 957 q 549 990 525 990 q 580 978 568 990 q 598 947 592 965 q 606 910 604 929 q 607 876 607 890 q 606 859 607 869 q 606 849 606 849 q 589 749 599 796 q 565 658 579 703 q 531 570 550 614 q 486 479 511 526 q 451 415 469 447 q 415 351 432 383 q 387 285 399 319 q 372 213 375 250 q 371 183 372 204 q 369 137 369 161 q 367 91 368 113 q 367 61 367 69 q 343 13 363 36 q 296 -10 324 -10 q 265 1 276 -10 q 242 28 254 13 q 231 65 231 42 q 231 104 231 89 "},"8":{"ha":738,"x_min":14,"x_max":721,"o":"m 14 310 q 31 413 14 363 q 79 504 47 463 q 97 519 85 511 q 120 535 108 526 q 141 551 132 543 q 150 569 150 560 q 143 588 150 579 q 127 603 136 596 q 109 617 118 610 q 96 631 100 624 q 70 680 78 657 q 63 732 63 703 l 63 756 q 67 777 64 761 q 75 810 71 793 q 83 842 79 826 q 90 864 88 857 q 139 942 107 910 q 211 994 171 974 q 297 1024 251 1014 q 386 1033 342 1033 q 460 1020 425 1033 q 531 994 494 1007 q 591 957 564 983 q 638 897 618 931 q 667 828 657 864 q 678 758 678 792 q 670 713 678 738 q 650 663 663 688 q 622 617 638 638 q 590 586 607 596 l 590 578 q 601 556 590 565 q 625 539 611 547 q 652 522 639 531 q 672 504 665 514 q 710 420 699 465 q 721 328 721 375 q 691 192 721 254 q 607 81 661 129 q 533 42 571 61 q 454 15 496 24 q 440 15 450 15 q 421 15 432 15 q 400 14 410 14 q 386 14 390 14 q 252 29 314 14 q 142 78 190 44 q 60 164 93 111 q 14 293 26 217 l 14 310 m 139 282 q 166 235 149 257 q 205 195 183 213 q 253 167 226 178 q 307 157 279 157 l 433 157 q 481 167 458 157 q 523 192 504 176 q 558 226 542 207 q 585 265 574 246 l 590 276 l 590 390 q 568 425 590 406 q 518 461 546 444 q 465 489 490 478 q 433 500 439 500 l 307 500 q 293 496 306 500 q 275 489 281 492 q 217 458 243 474 q 174 423 192 443 q 147 376 156 403 q 138 311 138 349 q 138 297 138 308 q 139 282 139 285 m 193 758 q 210 691 193 717 q 253 650 226 665 q 314 629 281 635 q 381 624 347 624 q 407 624 388 624 q 433 625 426 624 q 517 676 486 639 q 547 769 547 713 q 531 830 547 804 q 490 872 515 856 q 434 895 465 888 q 372 903 403 903 q 308 894 340 903 q 251 866 276 885 q 209 820 225 847 q 193 758 193 793 "},"9":{"ha":667,"x_min":13,"x_max":650,"o":"m 79 160 q 103 233 79 207 q 175 260 128 260 q 232 242 215 260 q 256 202 249 224 q 271 163 264 181 q 297 144 278 144 q 360 173 324 144 q 428 242 396 201 q 484 327 461 283 q 507 400 507 371 q 472 388 486 400 q 438 368 457 375 q 379 349 410 357 q 317 342 349 342 q 199 372 254 342 q 103 449 144 401 q 37 555 61 496 q 13 672 13 614 q 13 682 13 675 q 14 689 14 689 l 63 853 q 76 874 65 863 q 90 890 86 886 q 195 980 133 949 q 329 1011 257 1011 q 424 994 376 1011 q 512 946 471 976 q 582 874 553 915 q 624 788 611 833 q 631 755 626 775 q 639 716 635 735 q 647 683 643 697 q 650 668 650 669 l 650 489 q 639 411 639 450 q 624 336 639 374 q 616 322 622 333 q 602 294 610 310 q 586 263 594 279 q 574 239 578 247 q 533 176 561 214 q 469 103 504 139 q 397 41 433 67 q 329 15 360 15 l 182 15 q 158 22 169 15 q 135 38 146 28 q 117 58 125 47 q 101 75 108 68 q 83 115 88 90 q 79 160 79 140 m 133 703 q 135 644 133 669 q 145 599 138 619 q 168 560 153 579 q 210 521 183 542 q 246 490 225 508 q 292 472 267 472 l 394 472 q 412 478 397 472 q 432 489 426 485 q 474 522 457 506 q 502 558 492 539 q 517 601 513 578 q 521 654 521 624 q 488 785 521 731 q 383 869 456 839 q 358 870 378 869 q 332 871 339 871 q 274 868 296 871 q 236 857 253 865 q 206 833 219 849 q 172 793 192 818 q 143 752 153 769 q 133 703 133 735 "},"ร":{"ha":694,"x_min":0,"x_max":0,"o":""},"รท":{"ha":694,"x_min":0,"x_max":0,"o":""}," ":{"ha":694,"x_min":0,"x_max":0,"o":""},"!":{"ha":274,"x_min":14,"x_max":257,"o":"m 35 126 q 60 204 35 171 q 136 238 86 238 q 180 227 160 238 q 215 199 200 217 q 239 160 231 182 q 247 115 247 138 q 233 67 247 89 q 203 26 218 46 q 170 10 188 17 q 136 4 153 4 q 59 42 83 4 q 35 126 35 79 m 14 925 q 24 971 14 949 q 63 993 33 993 l 208 993 q 232 985 222 993 q 247 965 242 976 q 255 939 253 953 q 257 914 257 925 l 257 896 q 237 785 249 840 q 219 675 225 731 q 215 606 217 642 q 212 534 214 569 q 204 465 210 499 q 188 399 199 431 q 165 377 174 383 q 138 371 157 371 q 88 397 106 371 q 68 453 71 422 q 60 580 63 518 q 51 707 57 642 q 43 783 49 743 q 31 858 38 824 q 20 892 26 878 q 14 925 14 906 "},"\"":{"ha":601,"x_min":14,"x_max":586,"o":"m 40 567 q 52 612 40 592 q 78 652 64 632 q 106 694 93 672 q 118 740 118 715 q 102 765 118 756 q 66 786 86 774 q 30 819 46 799 q 14 878 14 840 q 15 898 14 886 q 20 922 17 910 q 28 943 24 933 q 42 957 33 953 q 59 967 49 961 q 80 977 69 972 q 99 986 90 982 q 107 990 107 990 l 144 990 q 152 986 144 990 q 170 977 160 982 q 192 967 181 972 q 210 957 203 961 q 231 928 221 950 q 247 881 240 907 q 256 831 253 856 q 260 796 260 807 q 250 720 260 767 q 222 630 240 674 q 173 554 203 586 q 104 522 143 522 q 60 531 81 522 q 40 567 40 539 m 367 582 q 378 628 367 607 q 405 669 390 649 q 432 710 419 689 q 444 757 444 732 q 428 781 444 772 q 392 803 413 790 q 356 836 372 815 q 340 894 340 857 q 342 913 340 901 q 346 937 343 925 q 354 959 349 949 q 367 974 360 969 q 390 983 374 978 q 424 993 407 988 q 453 1002 440 999 q 467 1006 467 1006 l 471 1006 q 480 1002 472 1006 q 498 993 488 999 q 519 983 508 988 q 536 974 529 978 q 557 945 547 967 q 573 898 567 924 q 583 848 579 872 q 586 813 586 824 q 576 737 586 783 q 548 646 567 690 q 499 569 529 601 q 431 538 469 538 q 387 546 407 538 q 367 582 367 554 "},"#":{"ha":694,"x_min":50,"x_max":876,"o":"m 250 410 l 318 607 l 151 607 q 125 615 133 606 q 117 636 117 625 q 118 646 117 642 q 128 667 121 657 q 143 682 135 678 q 151 685 151 685 l 349 686 l 439 915 q 451 928 442 922 q 469 939 460 935 q 486 942 481 942 q 492 940 490 942 q 503 933 497 939 q 508 919 508 928 l 508 906 l 429 686 l 617 686 l 699 896 q 699 898 699 896 q 701 901 700 900 q 739 932 711 921 q 749 935 743 933 q 758 936 754 936 q 764 935 763 936 q 775 928 769 933 q 781 911 781 922 q 781 903 781 908 q 779 893 781 899 q 778 888 779 890 q 778 885 778 886 l 699 686 l 836 686 q 865 676 856 685 q 876 657 875 667 l 876 653 l 876 646 q 859 618 872 631 q 826 606 846 606 l 667 607 l 597 410 l 768 410 q 796 400 786 408 q 808 382 806 392 q 810 374 810 378 l 810 369 q 790 341 807 354 q 747 328 774 328 l 568 329 l 479 92 q 469 78 478 83 q 451 69 461 72 l 439 69 l 429 69 q 413 78 421 72 q 406 96 406 85 q 406 98 406 96 q 408 101 407 100 l 408 104 q 409 107 408 106 q 410 110 410 108 l 489 329 l 299 329 l 210 101 q 199 81 207 89 q 181 69 190 74 q 172 69 176 69 q 163 68 167 68 q 159 69 161 68 q 156 69 157 69 q 142 78 147 69 q 136 97 136 86 q 137 102 136 100 q 139 108 138 104 q 139 108 139 108 q 140 110 139 110 q 141 115 140 113 q 142 119 142 118 l 219 329 l 72 329 q 56 335 61 328 q 50 351 50 342 q 51 360 50 356 q 54 371 51 365 q 68 397 58 385 q 92 408 78 408 l 250 410 m 518 410 l 588 607 l 400 607 l 329 410 l 518 410 "},"$":{"ha":757,"x_min":14,"x_max":743,"o":"m 14 199 l 14 286 q 24 297 21 289 q 30 313 28 304 q 33 331 32 322 q 38 344 35 340 q 47 350 39 346 q 66 358 56 354 q 86 365 76 363 q 99 368 96 368 q 149 356 132 368 q 175 328 167 343 q 187 301 183 314 q 194 286 190 288 l 194 244 q 183 233 190 243 q 169 209 176 222 q 158 183 163 196 q 153 164 153 169 q 153 156 153 161 q 154 151 154 151 l 200 106 q 207 103 201 104 q 215 101 213 101 q 229 106 226 101 q 232 118 232 111 q 233 131 232 125 q 242 140 233 138 l 242 519 q 236 525 236 519 q 218 545 228 542 q 207 557 208 549 l 154 557 l 107 607 q 101 622 107 610 q 86 649 94 635 q 70 674 78 663 q 61 688 63 686 l 61 811 q 67 820 65 811 q 72 840 69 829 q 77 863 75 851 q 83 881 79 874 q 92 889 85 882 q 101 899 100 896 q 103 907 103 900 q 105 921 103 914 q 111 932 107 928 q 125 933 115 936 l 178 985 q 193 992 181 986 q 219 1005 206 997 q 244 1019 233 1013 q 256 1026 256 1025 l 256 1090 q 264 1097 260 1092 q 274 1109 268 1103 q 285 1121 279 1115 q 303 1126 292 1126 q 318 1122 313 1126 q 335 1114 324 1117 q 342 1060 331 1085 q 385 1036 353 1036 q 394 1037 388 1036 q 404 1038 401 1038 l 410 1043 q 414 1044 411 1044 q 415 1044 414 1044 q 417 1043 417 1044 l 422 1038 l 425 1038 q 440 1043 429 1038 q 454 1050 450 1049 l 454 1101 l 468 1114 l 510 1114 l 524 1101 l 524 1014 q 550 1004 539 1013 q 574 992 561 996 q 588 988 576 990 q 603 985 600 986 q 615 976 613 981 q 619 969 618 972 q 624 965 621 967 q 638 963 626 963 l 685 915 q 703 866 689 893 q 725 817 718 839 q 728 813 726 815 q 731 811 729 811 l 731 758 q 728 755 729 757 q 725 753 726 753 q 723 738 725 750 q 719 724 721 725 q 701 701 714 715 q 685 688 688 688 l 597 688 q 583 695 590 688 q 572 713 576 703 q 564 733 567 722 q 561 749 561 743 q 569 786 561 764 q 592 817 576 808 l 592 881 q 578 894 583 886 q 569 910 574 903 q 560 922 565 917 q 542 928 554 928 l 526 928 q 524 915 526 922 q 515 904 522 907 l 515 618 q 523 610 521 615 q 526 597 525 604 q 529 582 526 589 q 539 571 532 575 q 560 563 549 565 q 585 559 572 561 q 608 553 597 557 q 626 542 618 550 q 629 533 628 540 q 632 525 631 526 q 653 510 640 511 q 672 496 665 510 q 676 487 674 494 q 679 478 678 479 q 693 463 681 475 q 708 449 706 451 q 715 431 711 443 q 722 406 718 419 q 731 382 726 393 q 743 367 736 371 l 743 210 q 730 188 739 207 q 710 144 721 168 q 690 99 700 121 q 672 69 679 76 q 653 61 667 64 q 632 53 639 58 q 629 44 631 51 q 626 35 628 36 q 603 19 621 26 q 565 5 585 11 q 531 -7 546 -1 q 515 -18 515 -12 l 515 -151 q 523 -163 522 -154 q 524 -175 524 -172 l 421 -175 q 428 -164 421 -167 l 428 -15 l 375 -15 q 371 -6 376 -7 q 361 -6 365 -6 q 344 -10 350 -6 q 326 -18 339 -15 l 326 -175 l 232 -175 l 232 -6 q 222 6 232 -3 q 207 18 213 15 q 180 26 194 25 q 154 35 165 26 q 140 50 151 38 q 125 64 128 63 q 110 67 122 65 q 96 69 99 68 q 69 97 81 78 q 49 138 58 117 q 31 176 39 158 q 14 199 22 194 m 329 82 q 344 79 332 81 q 358 76 356 78 q 362 73 360 75 q 364 69 364 71 q 374 69 367 69 q 385 68 382 68 q 396 69 388 68 q 404 69 404 69 q 419 81 410 72 q 428 93 428 90 l 428 499 l 364 499 q 362 503 364 500 q 358 507 360 507 q 344 510 356 508 q 329 511 332 511 l 329 408 l 335 403 l 335 350 l 329 344 l 329 82 m 504 403 l 504 106 q 511 94 504 96 q 524 93 518 93 l 533 93 q 551 110 542 104 q 569 122 560 117 q 586 134 578 128 q 603 151 594 140 q 611 165 604 154 q 626 188 618 176 q 640 210 633 200 q 650 221 647 219 l 650 344 q 647 347 649 344 q 643 350 644 349 q 641 365 643 353 q 638 379 639 376 q 603 417 622 401 q 579 461 585 433 q 558 464 567 461 q 543 469 550 467 q 529 473 536 471 q 513 475 522 475 l 513 408 l 504 403 m 393 603 q 401 594 392 594 q 414 594 411 594 q 429 595 419 594 q 439 607 439 596 l 439 939 l 428 950 l 364 950 q 351 941 361 943 q 338 939 342 939 l 338 851 l 329 846 l 329 603 l 393 603 m 139 711 q 153 697 143 711 q 176 665 163 682 q 205 633 189 647 q 239 618 221 618 l 242 618 q 246 631 246 625 q 253 642 246 638 l 253 931 q 228 928 235 931 q 219 922 221 926 q 216 912 217 918 q 207 899 215 906 q 198 895 206 897 q 189 892 190 893 q 167 869 178 883 q 149 836 157 854 q 135 801 140 818 q 131 772 131 785 l 131 769 q 135 766 132 768 q 139 764 138 764 l 139 711 "},"%":{"ha":922,"x_min":13,"x_max":906,"o":"m 13 -79 q 13 -65 13 -74 q 14 -54 14 -56 q 16 -49 14 -53 q 19 -43 18 -46 q 97 54 57 6 q 172 153 136 103 q 182 172 174 156 q 193 190 190 188 q 201 200 194 192 q 217 217 208 208 q 233 234 225 226 q 242 244 240 242 q 247 254 243 246 q 256 272 251 263 q 265 290 261 282 q 269 299 268 297 q 281 316 272 303 q 292 332 289 329 q 391 458 340 394 q 488 588 442 521 q 493 598 489 589 q 503 617 497 607 q 513 636 508 628 q 519 647 518 644 q 526 654 521 649 q 536 666 531 660 q 547 678 542 672 q 553 685 551 683 q 602 759 579 722 q 650 832 625 796 q 676 863 661 847 q 703 896 690 879 q 726 930 717 913 q 735 967 735 947 q 700 953 725 967 q 645 924 675 940 q 587 891 615 907 q 542 869 558 875 q 517 863 529 865 q 494 857 504 861 q 477 844 483 853 q 471 819 471 836 q 474 780 471 800 q 476 740 476 760 q 455 646 476 697 q 399 550 433 594 q 319 476 364 506 q 229 446 275 446 q 153 461 188 446 q 96 502 119 476 q 59 563 72 528 q 46 639 46 599 q 65 740 46 688 q 119 838 85 793 q 199 912 153 882 q 297 946 244 942 q 318 947 301 946 q 354 949 335 947 q 390 951 374 950 q 411 951 407 951 q 463 970 439 956 q 514 996 488 985 q 590 1022 550 1010 q 661 1056 629 1033 q 681 1072 672 1063 q 700 1092 690 1082 q 719 1109 710 1101 q 743 1121 729 1117 l 783 1121 q 829 1116 807 1121 q 868 1100 851 1111 q 895 1070 885 1089 q 906 1025 906 1051 q 896 980 906 1001 q 872 938 886 958 q 842 900 857 918 q 814 865 826 882 q 469 386 636 628 q 133 -97 303 144 q 106 -119 122 -114 q 71 -125 90 -125 q 30 -115 47 -125 q 13 -79 13 -106 m 356 53 q 356 57 356 54 q 357 60 357 60 l 383 179 q 390 196 385 186 q 402 215 396 206 q 414 233 408 225 q 422 244 419 240 q 433 263 425 250 q 443 278 442 275 q 480 321 463 300 q 525 349 497 342 q 540 351 529 349 q 562 356 550 353 q 585 360 574 358 q 601 364 596 363 l 604 364 q 661 357 629 364 q 715 343 693 350 q 775 266 753 308 q 797 171 797 224 q 777 76 797 121 q 732 -11 757 32 q 697 -52 719 -33 q 649 -85 675 -71 q 596 -106 624 -99 q 544 -114 568 -114 q 432 -78 474 -114 q 363 22 390 -42 q 356 53 356 35 m 475 93 q 549 15 475 15 q 600 29 576 15 q 641 65 624 43 q 668 114 658 88 q 678 165 678 140 l 678 201 q 645 239 667 226 q 599 251 624 251 q 565 241 582 251 q 535 217 549 231 q 508 188 521 203 q 488 164 496 174 q 478 128 481 144 q 475 93 475 113 m 160 651 q 162 631 160 643 q 168 608 164 619 q 180 590 172 597 q 199 582 188 582 l 281 582 q 301 597 286 582 q 331 630 315 611 q 360 667 347 649 q 372 696 372 686 l 372 778 q 365 795 372 788 q 349 808 358 803 q 328 815 339 813 q 311 817 318 817 q 252 802 279 817 q 204 764 225 788 q 172 710 183 740 q 160 651 160 681 "},"&":{"ha":863,"x_min":14,"x_max":846,"o":"m 14 269 q 23 344 14 306 q 48 417 32 382 q 87 484 64 453 q 139 538 110 515 q 178 565 158 553 q 215 597 199 578 q 216 608 215 600 q 217 618 217 615 q 216 631 217 622 q 215 640 215 639 q 212 648 215 642 q 204 662 208 654 q 197 676 200 669 q 193 683 193 682 q 189 697 192 688 q 183 717 186 707 q 178 737 181 728 q 176 749 176 746 l 176 796 q 185 874 176 833 q 215 949 194 915 q 266 1006 235 983 q 343 1028 297 1028 q 367 1027 360 1028 q 389 1021 374 1026 q 411 1014 397 1018 q 438 1006 425 1010 q 461 998 451 1001 q 471 994 471 994 l 493 972 q 497 963 493 972 q 506 942 500 954 q 517 917 511 929 q 525 896 522 904 q 538 856 533 875 q 542 815 542 838 q 522 712 542 765 q 471 618 501 658 q 448 597 463 607 q 420 577 433 588 q 397 556 407 567 q 388 529 388 544 q 398 500 388 524 q 423 451 408 476 q 452 405 438 425 q 476 385 467 385 q 490 409 481 385 q 510 465 499 433 q 534 526 521 496 q 558 569 547 557 q 585 598 569 583 q 617 624 600 613 q 653 644 635 636 q 690 651 672 651 q 743 636 718 651 q 786 597 768 621 q 815 546 804 574 q 825 493 825 518 q 817 447 825 467 q 778 428 810 428 q 743 441 756 428 q 722 469 731 454 q 703 498 713 485 q 678 511 694 511 q 647 496 661 511 q 619 456 632 481 q 598 403 607 432 q 582 346 589 374 q 572 295 575 318 q 568 263 568 272 l 568 228 q 583 203 571 217 q 613 179 596 190 q 646 161 629 168 q 672 154 663 154 q 685 155 675 154 q 699 157 696 156 q 722 185 713 168 q 740 217 731 201 q 760 243 749 232 q 793 254 772 254 q 833 233 821 254 q 846 186 846 211 q 818 96 846 136 q 754 26 790 56 q 722 16 739 17 q 690 15 706 15 q 593 44 638 15 q 514 113 549 72 q 510 113 513 113 q 506 114 507 114 q 481 96 490 114 q 460 69 472 78 q 385 24 421 43 q 300 4 349 4 q 235 7 269 4 q 172 21 200 10 q 156 28 161 25 q 146 35 150 31 q 137 44 142 39 q 122 58 132 50 q 45 151 76 99 q 14 269 14 204 m 144 238 q 200 157 161 179 q 300 135 239 135 q 369 156 340 135 q 422 206 397 176 q 428 217 425 208 q 432 228 432 225 q 419 260 433 238 q 388 308 406 282 q 352 356 369 333 q 329 390 335 379 q 322 405 326 394 q 310 428 317 415 q 299 451 304 440 q 292 467 293 463 q 283 476 289 475 q 271 478 278 478 q 258 477 261 478 q 247 472 256 476 q 169 394 194 439 q 143 285 143 350 q 144 261 143 279 q 144 238 144 243 m 296 803 q 299 731 296 769 q 318 663 303 693 q 326 662 321 663 q 332 661 331 661 q 369 677 353 661 q 398 716 386 693 q 416 764 410 739 q 422 806 422 789 q 419 835 422 819 q 408 863 415 850 q 388 883 400 875 q 360 892 376 892 q 328 883 340 892 q 308 863 315 875 q 299 834 301 850 q 296 803 296 818 "},"'":{"ha":694,"x_min":163,"x_max":371,"o":"m 210 626 q 230 652 219 638 q 249 681 240 667 q 278 735 267 710 q 289 776 289 761 q 287 782 289 785 q 281 776 285 779 q 273 776 278 774 q 263 799 268 779 q 256 799 261 801 q 247 797 251 797 l 240 797 q 229 796 236 796 q 223 797 226 796 q 215 797 219 797 q 189 813 201 801 q 171 846 176 824 q 169 851 171 849 q 168 858 168 854 q 167 860 167 858 q 167 861 167 861 q 164 872 165 867 q 163 882 163 878 q 181 935 163 915 q 224 964 200 954 q 249 972 236 969 q 269 974 261 974 q 300 967 283 974 q 349 922 326 954 q 371 838 371 889 q 371 817 371 828 q 368 796 371 807 q 344 719 363 763 q 330 687 338 703 q 314 657 322 671 q 279 606 296 624 q 268 593 275 599 q 254 583 261 588 q 242 581 246 581 q 235 582 239 581 q 218 591 226 583 q 207 608 210 599 q 206 614 206 610 q 206 615 206 614 q 207 619 206 618 q 210 625 207 625 l 210 626 "},"(":{"ha":344,"x_min":14,"x_max":329,"o":"m 14 433 l 14 656 q 25 709 22 682 q 31 764 28 736 q 38 819 33 792 q 51 872 42 847 q 69 918 57 888 q 98 985 82 949 q 134 1060 114 1022 q 176 1131 154 1099 q 222 1183 199 1163 q 267 1203 244 1203 q 306 1187 293 1203 q 318 1146 318 1171 q 317 1136 318 1143 q 317 1126 317 1129 q 273 1048 299 1086 q 231 969 247 1010 q 217 929 226 958 q 198 867 208 900 q 178 804 188 833 q 165 764 169 775 q 159 740 163 756 q 152 709 156 725 q 147 681 149 693 q 144 667 144 668 l 144 444 q 168 339 157 388 q 199 228 179 290 q 229 162 213 196 q 263 97 246 128 q 282 69 271 83 q 303 41 293 56 q 322 10 314 26 q 329 -22 329 -6 q 312 -70 329 -49 q 265 -92 294 -92 q 229 -81 246 -92 q 199 -56 213 -71 q 174 -22 185 -40 q 154 11 163 -4 q 135 48 147 25 q 113 94 124 71 q 93 133 101 117 q 85 151 85 150 l 14 433 "},")":{"ha":335,"x_min":14,"x_max":318,"o":"m 19 -12 q 34 47 19 15 q 68 99 49 78 q 163 319 126 203 q 199 557 199 436 q 179 764 199 661 q 122 963 160 867 q 97 1009 115 982 q 60 1063 79 1036 q 28 1115 42 1090 q 14 1154 14 1139 q 35 1197 14 1181 q 79 1213 56 1213 q 119 1194 100 1213 q 153 1149 138 1175 q 181 1094 168 1122 q 204 1050 194 1067 q 219 1010 208 1039 q 243 947 231 981 q 266 885 256 914 q 281 843 276 856 q 301 751 296 794 q 318 658 306 707 l 318 468 q 294 355 304 410 q 269 240 285 300 q 265 224 268 238 q 258 207 261 211 q 243 169 254 196 q 220 114 232 143 q 197 58 208 85 q 182 22 186 32 q 165 -10 176 8 q 140 -46 154 -29 q 108 -74 125 -62 q 74 -86 92 -86 q 33 -61 47 -86 q 19 -12 19 -36 "},",":{"ha":274,"x_min":14,"x_max":258,"o":"m 40 -185 q 52 -139 40 -160 q 78 -98 64 -118 q 105 -57 93 -78 q 117 -11 117 -36 q 101 13 117 4 q 65 35 85 22 q 30 68 46 47 q 14 126 14 89 q 15 145 14 133 q 19 169 17 157 q 28 190 22 181 q 40 204 33 200 q 58 214 47 208 q 78 224 68 219 q 97 233 89 229 q 106 238 106 238 l 143 238 q 151 233 143 238 q 169 224 158 229 q 190 214 179 219 q 208 204 201 208 q 229 176 219 197 q 245 128 239 154 q 255 79 251 103 q 258 44 258 56 q 249 -31 258 15 q 220 -122 239 -78 q 172 -197 201 -165 q 103 -228 142 -228 q 60 -220 79 -228 q 40 -185 40 -212 "},".":{"ha":236,"x_min":14,"x_max":219,"o":"m 14 106 q 33 183 14 154 q 100 228 51 213 l 118 228 q 194 197 169 228 q 219 117 219 165 q 192 34 219 68 q 114 0 165 0 q 40 30 65 0 q 14 106 14 60 "},"/":{"ha":797,"x_min":14,"x_max":781,"o":"m 644 1224 q 690 1251 661 1251 q 717 1250 701 1251 q 747 1244 732 1249 q 771 1231 761 1240 q 781 1207 781 1222 l 781 1196 q 772 1179 778 1192 q 760 1153 767 1167 q 747 1126 753 1139 q 738 1110 740 1114 q 731 1098 736 1107 q 718 1079 725 1089 q 706 1060 711 1069 q 699 1050 700 1051 q 685 1023 696 1044 q 661 976 674 1001 q 638 930 649 951 q 624 903 626 908 q 618 894 622 900 q 613 886 614 889 l 471 610 l 460 593 l 307 294 q 290 262 296 279 q 275 229 285 244 q 208 99 238 165 q 144 -32 179 32 q 116 -56 133 -53 q 76 -60 99 -60 q 64 -60 74 -60 q 43 -59 54 -60 q 23 -55 32 -58 q 14 -43 14 -51 l 14 -6 q 20 9 15 -4 q 33 41 25 22 q 46 71 42 60 q 90 151 65 113 q 139 229 115 190 q 167 285 156 256 q 193 343 178 315 q 305 559 256 447 q 411 778 354 671 q 472 887 440 832 q 534 997 503 942 q 594 1110 565 1053 q 644 1224 622 1167 "},":":{"ha":236,"x_min":14,"x_max":219,"o":"m 14 101 q 33 179 14 150 q 100 224 51 208 l 118 224 q 194 192 169 224 q 219 113 219 161 q 192 30 219 64 q 114 -4 165 -4 q 40 26 65 -4 q 14 101 14 56 m 14 621 q 33 699 14 669 q 100 743 51 728 l 118 743 q 194 712 169 743 q 219 632 219 681 q 192 549 219 583 q 114 515 165 515 q 40 545 65 515 q 14 621 14 575 "},";":{"ha":274,"x_min":14,"x_max":258,"o":"m 40 -196 q 52 -150 40 -171 q 78 -109 64 -129 q 105 -68 93 -89 q 117 -22 117 -47 q 101 2 117 -7 q 65 24 85 11 q 30 57 46 36 q 14 115 14 78 q 15 134 14 122 q 19 158 17 146 q 28 179 22 169 q 40 193 33 189 q 58 203 47 197 q 78 213 68 208 q 97 222 89 218 q 106 226 106 226 l 143 226 q 151 222 143 226 q 169 213 158 218 q 190 203 179 208 q 208 193 201 197 q 229 165 219 186 q 245 117 239 143 q 255 68 251 92 q 258 33 258 44 q 249 -42 258 4 q 220 -133 239 -89 q 172 -208 201 -176 q 103 -239 142 -239 q 60 -231 79 -239 q 40 -196 40 -224 m 24 585 q 43 663 24 633 q 111 707 63 692 q 119 708 113 707 q 129 708 125 708 q 205 676 179 708 q 231 596 231 644 q 203 514 231 549 q 125 479 176 479 q 50 509 76 479 q 24 585 24 539 "},"?":{"ha":579,"x_min":14,"x_max":564,"o":"m 192 144 q 222 213 192 186 q 293 239 253 239 q 364 207 339 239 q 389 132 389 175 q 382 90 389 111 q 362 53 375 69 q 330 26 349 36 q 289 15 311 15 q 249 28 267 15 q 218 61 231 42 q 199 103 206 81 q 192 144 192 125 m 219 408 q 221 452 219 429 q 228 497 222 475 q 247 537 235 519 q 281 564 260 554 l 400 618 q 442 665 429 632 q 454 725 454 697 q 407 851 454 801 q 283 901 360 901 q 219 890 247 901 q 161 863 192 879 q 154 856 154 860 q 154 847 154 853 q 164 817 154 831 q 185 790 174 804 q 206 760 196 776 q 215 724 215 744 q 188 657 215 679 q 119 635 160 635 q 70 646 90 635 q 38 675 50 657 q 19 717 25 693 q 14 769 14 742 q 33 871 14 824 q 85 952 51 918 q 166 1006 119 986 q 267 1026 213 1026 q 307 1023 281 1026 q 362 1015 333 1019 q 413 1003 390 1010 q 443 988 436 996 l 531 885 q 533 880 531 883 q 536 874 535 876 q 543 849 539 864 q 551 817 547 833 q 559 790 556 801 q 563 776 563 778 q 563 761 563 775 q 564 740 564 747 q 559 684 564 715 q 544 623 554 653 q 519 567 535 593 q 481 526 503 540 q 447 507 469 518 q 403 483 425 496 q 363 459 381 471 q 340 439 344 447 q 340 401 340 422 q 333 360 339 379 q 316 327 328 340 q 282 314 304 314 q 252 323 264 314 q 233 347 240 332 q 222 377 225 361 q 219 408 219 393 "},"A":{"ha":846,"x_min":13,"x_max":829,"o":"m 13 75 q 31 22 13 46 q 81 -3 49 -3 q 135 2 108 -3 q 189 7 161 7 q 228 4 210 7 q 267 1 247 1 q 319 15 297 1 q 340 61 340 29 q 327 102 340 90 q 299 121 314 114 q 270 136 283 128 q 257 168 257 144 q 258 178 257 171 q 258 186 258 185 l 297 268 q 310 280 299 271 q 324 289 321 289 l 542 289 q 555 279 549 289 q 567 257 561 269 q 575 233 572 244 q 579 218 578 222 q 582 207 581 215 q 585 189 583 199 q 589 170 588 179 q 590 158 590 161 q 576 141 586 147 q 552 129 565 135 q 526 117 539 124 q 503 99 513 111 l 503 75 q 512 36 503 50 q 536 16 521 22 q 571 8 551 10 q 613 7 590 7 q 683 3 646 6 q 756 1 721 1 q 808 19 788 1 q 829 69 829 36 q 803 121 829 104 q 777 126 792 124 q 747 134 763 129 q 720 147 732 139 q 704 169 708 156 l 574 664 q 542 758 550 708 q 519 854 533 807 q 510 892 515 868 q 497 940 506 917 q 472 979 488 963 q 432 996 457 996 q 396 983 410 996 q 374 951 382 969 q 360 911 365 932 q 351 876 356 890 q 309 743 332 810 q 264 610 286 676 q 249 550 253 579 q 232 490 244 521 q 219 442 228 476 q 199 368 210 407 q 180 294 189 329 q 167 246 171 260 q 160 223 164 236 q 152 197 157 210 q 140 174 147 185 q 122 158 132 163 q 89 146 103 150 q 63 137 75 142 q 39 124 50 132 q 14 99 28 115 q 13 87 14 96 q 13 75 13 78 m 335 414 q 334 422 335 417 q 333 431 333 428 q 344 504 333 467 q 367 578 356 542 q 374 599 368 582 q 389 638 381 617 q 405 681 397 660 q 417 714 413 703 q 421 724 418 717 q 429 731 424 731 q 438 712 431 731 q 454 665 444 693 q 475 601 464 636 q 495 534 486 567 q 510 474 504 501 q 515 436 515 447 q 515 427 515 433 q 514 419 514 421 l 508 414 q 452 407 479 411 q 397 403 425 403 q 364 403 378 403 q 335 414 350 404 "},"B":{"ha":819,"x_min":14,"x_max":804,"o":"m 14 72 q 57 138 14 119 l 90 138 q 138 134 114 138 q 186 131 161 131 q 199 131 190 131 q 210 132 208 132 l 215 138 l 215 839 q 203 851 215 847 q 179 856 190 856 l 169 856 q 137 853 153 856 q 104 850 121 850 q 41 867 68 850 q 14 924 14 885 q 32 973 14 954 q 81 992 50 992 q 119 990 103 992 q 161 981 136 988 l 246 981 q 361 989 304 981 q 476 997 418 997 l 504 997 q 615 967 565 988 q 699 915 664 947 q 752 837 733 883 q 771 728 771 790 q 763 664 771 697 q 738 606 754 631 q 715 576 731 597 q 700 540 700 556 q 708 523 700 532 q 725 504 715 514 q 744 486 735 494 q 760 469 754 478 q 793 395 782 429 q 804 317 804 361 q 797 249 804 285 q 777 179 790 214 q 744 114 764 144 q 700 61 725 83 q 631 25 665 42 q 558 1 597 8 q 467 1 531 1 q 329 0 404 0 q 191 -1 254 0 q 101 -1 128 -1 l 85 -1 q 33 20 53 -1 q 14 72 14 42 m 361 469 l 357 469 q 347 461 353 467 q 340 453 340 456 l 340 143 q 356 126 340 131 q 381 121 372 121 q 474 126 428 121 q 569 132 521 131 q 628 163 606 146 q 665 201 651 179 q 684 250 679 222 q 689 314 689 278 q 690 356 689 332 q 678 393 690 379 l 613 458 q 598 469 608 463 q 585 475 588 475 l 428 475 q 411 465 417 467 q 396 464 406 464 q 378 467 386 464 q 361 469 371 469 m 340 856 l 340 617 q 355 598 340 601 q 383 594 369 594 l 400 594 q 493 596 444 594 q 579 600 542 597 q 601 614 589 606 q 624 633 613 622 q 642 656 635 643 q 650 682 650 668 l 650 774 q 644 785 650 779 q 616 823 628 811 q 590 840 604 835 q 559 847 576 844 q 514 856 542 849 l 340 856 "},"C":{"ha":678,"x_min":14,"x_max":661,"o":"m 101 138 q 88 163 97 144 q 70 203 79 182 q 53 242 61 224 q 42 268 44 260 q 25 339 26 304 q 14 410 24 374 l 14 556 q 21 594 18 574 q 25 632 24 615 l 85 828 q 99 858 88 839 q 126 896 111 876 q 157 933 142 915 q 182 958 172 950 q 200 967 188 961 q 226 981 213 974 q 251 994 239 988 q 269 1003 264 1000 q 301 1009 285 1010 q 332 1008 318 1008 q 425 992 385 1008 q 514 947 465 975 l 519 947 q 535 957 528 947 q 549 978 542 967 q 568 999 557 989 q 596 1008 579 1008 q 624 1000 613 1008 q 641 979 635 992 q 649 952 647 967 q 651 924 651 938 q 648 894 651 908 q 644 864 644 879 l 644 861 q 648 844 646 857 q 650 828 650 832 l 650 660 q 645 634 650 649 q 632 606 640 619 q 612 582 624 592 q 588 572 600 572 q 553 589 565 572 q 534 628 540 606 q 526 673 528 650 q 519 708 524 696 q 503 763 511 740 q 481 802 494 785 q 449 833 468 819 q 400 861 429 847 q 391 865 397 863 q 383 867 385 867 l 292 867 q 287 865 290 867 q 281 861 283 863 q 225 810 250 840 q 182 744 200 779 q 154 670 164 708 q 144 594 144 632 l 144 421 q 147 407 146 418 q 150 393 149 396 q 166 310 156 351 q 196 233 176 268 q 247 170 215 197 q 324 132 278 143 q 335 131 325 132 q 351 131 346 131 q 436 153 401 131 q 494 212 471 176 q 534 290 518 247 q 564 371 550 332 q 610 399 581 399 q 638 391 628 399 q 654 371 649 383 q 660 343 660 358 q 661 314 661 328 q 638 206 661 263 q 576 103 615 150 q 488 26 538 57 q 382 -4 438 -4 q 222 29 299 -4 q 101 138 146 63 "},"D":{"ha":840,"x_min":14,"x_max":825,"o":"m 14 94 q 36 147 14 135 q 93 158 58 158 q 138 155 117 158 q 182 151 158 151 q 196 151 188 151 q 204 153 204 151 l 215 163 l 213 315 l 213 343 l 213 588 l 213 614 l 215 847 q 210 853 215 853 q 199 858 204 858 l 85 858 q 33 881 53 858 q 14 932 14 903 q 38 989 14 972 q 99 1006 61 1006 q 149 1003 125 1006 q 201 1000 174 1000 q 240 999 218 1000 q 281 1006 263 999 l 471 1006 q 552 981 511 989 q 633 957 593 974 q 718 892 682 936 q 778 795 754 849 q 813 685 801 742 q 825 581 825 628 q 803 357 825 465 q 726 147 781 249 q 708 127 722 142 q 688 108 693 113 q 609 58 646 75 q 534 33 572 40 q 453 24 496 25 q 357 22 411 24 q 331 21 349 22 q 297 19 314 19 q 265 17 279 18 q 247 17 251 17 q 232 14 244 17 q 206 8 219 11 q 181 3 193 6 q 167 0 169 0 l 143 0 q 98 5 121 0 q 56 21 75 10 q 26 50 38 32 q 14 94 14 68 m 340 174 q 347 164 340 168 q 363 157 354 160 q 379 153 371 154 q 392 151 388 151 q 478 155 433 151 q 563 174 524 158 q 640 238 611 193 q 683 338 668 283 q 701 450 697 393 q 704 551 704 507 q 686 701 704 640 q 628 797 668 761 q 527 849 589 833 q 376 865 465 865 q 361 865 371 865 q 351 864 351 864 l 344 853 l 344 636 l 343 608 l 340 174 "},"E":{"ha":851,"x_min":14,"x_max":835,"o":"m 24 63 q 26 92 24 76 q 35 119 29 107 q 53 140 42 132 q 82 147 64 147 l 90 147 q 106 144 93 146 q 122 142 119 142 l 125 142 q 144 143 132 142 q 168 147 156 144 q 192 151 181 149 q 210 153 203 153 q 222 173 218 158 q 226 196 226 188 l 224 522 l 224 549 l 221 739 q 227 780 228 757 q 226 819 226 803 l 226 854 l 215 864 q 204 865 214 865 q 189 865 194 865 q 144 862 165 865 q 99 858 122 858 q 38 875 61 858 q 14 932 14 892 q 33 988 14 965 q 89 1011 53 1011 q 426 1008 258 1011 q 764 1006 594 1004 q 799 979 785 1003 q 813 935 813 956 l 813 642 q 794 601 813 617 q 753 586 776 586 q 715 600 733 586 q 696 636 696 614 l 696 783 q 687 801 696 785 q 672 826 678 818 q 649 849 665 835 q 622 864 633 864 l 357 864 l 351 858 q 351 827 351 850 q 349 779 350 804 q 347 732 347 754 q 346 701 346 710 q 343 685 346 699 q 340 668 340 671 l 340 665 l 340 664 q 343 647 342 657 q 347 627 344 636 q 350 611 349 618 q 351 604 351 604 l 357 599 l 428 599 q 462 617 443 610 q 492 642 481 624 q 503 683 501 657 q 507 733 504 708 q 519 776 510 758 q 557 794 529 794 q 593 778 579 794 q 607 739 607 763 l 607 283 q 564 239 607 239 q 522 256 536 239 q 503 298 508 274 q 497 349 497 322 q 497 392 497 375 q 486 413 494 399 q 466 440 478 426 q 442 463 454 453 q 422 474 431 474 l 363 474 q 357 468 357 474 q 353 461 354 465 q 351 457 351 457 l 351 153 l 363 142 l 503 142 q 563 151 536 151 q 613 151 590 150 q 656 163 636 153 q 693 207 675 174 q 700 220 696 211 q 704 233 704 229 l 704 369 q 721 411 704 393 q 761 429 738 429 q 808 402 790 429 q 826 349 826 375 l 826 158 q 834 133 833 143 q 835 107 835 122 q 804 28 835 56 q 724 0 774 0 q 694 0 708 0 q 667 6 682 0 l 204 6 q 164 -1 186 -1 q 125 0 142 0 q 88 1 106 0 q 55 8 69 1 q 32 26 40 14 q 24 63 24 39 "},"F":{"ha":825,"x_min":14,"x_max":808,"o":"m 14 79 q 39 132 14 118 q 99 146 64 146 q 148 142 124 146 q 197 139 172 139 q 215 140 204 139 q 226 140 225 140 l 232 146 l 232 314 q 228 333 229 326 q 226 350 226 339 q 228 367 226 360 q 232 385 229 374 l 232 804 l 221 858 l 215 864 q 200 865 214 864 q 179 865 186 865 q 133 862 154 865 q 88 858 111 858 q 37 876 56 858 q 18 925 18 893 q 40 984 18 957 q 96 1011 61 1011 q 159 1010 128 1011 q 221 1000 190 1010 l 379 1003 l 406 1003 l 738 1006 q 786 983 764 1006 q 808 935 808 961 l 808 636 q 803 609 808 624 q 790 581 799 594 q 770 558 782 567 q 746 549 758 549 q 711 563 731 549 q 692 592 692 578 l 692 793 q 684 808 692 796 q 672 826 676 821 q 612 868 644 861 q 536 875 579 875 q 444 870 489 875 q 351 864 400 865 l 346 858 q 345 841 346 857 q 344 818 344 825 q 348 758 344 786 q 351 699 351 729 q 349 663 351 679 q 346 626 346 646 q 347 610 346 621 q 349 590 347 600 q 355 573 351 581 q 363 565 358 565 l 433 565 q 449 572 442 565 q 464 588 457 578 q 475 608 471 597 q 482 625 479 618 q 482 661 482 639 q 486 704 482 683 q 501 740 490 725 q 536 756 513 756 q 574 742 556 756 q 593 707 593 728 l 593 385 q 603 350 603 369 q 603 314 603 331 q 602 280 603 299 q 596 244 601 261 q 578 217 590 228 q 544 206 567 206 q 505 224 519 206 q 488 265 490 242 q 486 288 488 271 q 484 322 485 304 q 483 356 483 340 q 482 379 482 372 q 449 428 469 415 q 392 440 428 440 l 363 440 q 346 413 349 431 l 346 350 q 351 253 346 300 q 357 157 356 207 q 377 142 364 144 q 403 140 390 140 q 438 143 421 140 q 474 146 456 146 q 506 142 488 146 q 539 131 524 139 q 565 111 554 124 q 575 81 575 99 q 531 21 575 32 q 510 20 525 21 q 479 19 496 19 q 448 17 463 18 q 428 15 433 15 q 414 13 425 15 q 400 10 403 11 l 63 10 q 42 17 51 10 q 27 35 33 25 q 17 58 21 46 q 14 79 14 69 "},"G":{"ha":786,"x_min":14,"x_max":769,"o":"m 14 408 l 14 554 q 26 631 24 592 q 36 707 29 669 q 68 810 43 754 q 131 915 93 867 q 218 995 169 963 q 321 1028 267 1028 q 388 1015 353 1028 q 449 983 422 1001 q 475 960 463 975 q 506 946 488 946 q 522 957 517 946 q 535 982 528 968 q 556 1007 543 996 q 593 1018 568 1018 q 626 1007 614 1018 q 639 974 639 996 l 639 821 q 633 772 635 806 q 626 705 632 739 q 607 645 621 671 q 563 619 593 619 q 523 638 535 619 q 504 686 511 657 q 490 748 497 715 q 466 810 483 781 q 416 858 449 839 q 326 876 383 876 q 223 833 260 876 q 167 729 186 790 q 160 704 161 714 q 157 688 158 694 q 153 673 156 681 q 144 653 150 665 l 144 386 q 158 312 144 354 q 196 231 172 269 q 253 167 219 193 q 326 140 286 140 q 399 160 367 140 q 453 210 431 179 q 487 279 475 240 q 499 356 499 318 q 499 372 499 361 q 497 386 499 385 l 488 397 q 449 402 469 399 q 412 413 429 406 q 383 434 394 421 q 372 471 372 447 q 386 517 372 494 q 426 539 400 539 q 515 531 471 539 q 604 522 560 522 q 642 525 624 522 q 681 528 661 528 q 713 526 697 528 q 742 517 729 524 q 762 499 754 511 q 769 468 769 488 q 756 427 769 442 q 723 406 743 413 q 680 399 703 400 q 639 397 657 397 q 630 383 632 394 q 628 369 628 372 l 628 213 q 622 183 622 197 q 622 156 622 171 q 625 122 622 138 q 628 89 628 106 q 610 32 628 58 q 560 6 592 6 q 531 14 542 6 q 514 33 521 22 q 501 51 507 43 q 488 60 496 60 q 462 53 475 60 q 435 37 449 46 q 408 19 421 28 q 383 6 396 10 q 356 -1 368 -1 q 326 0 343 0 q 228 22 275 0 q 144 81 182 44 q 80 163 107 117 q 42 256 53 208 q 27 332 31 293 q 14 408 24 371 "},"H":{"ha":851,"x_min":14,"x_max":835,"o":"m 14 79 q 23 36 14 51 q 48 13 32 21 q 84 2 64 4 q 125 0 104 0 q 227 3 174 0 q 329 11 281 7 q 377 32 358 14 q 396 79 396 50 q 386 117 396 103 q 360 140 376 132 q 325 150 344 147 q 286 153 306 153 l 275 163 l 275 457 q 280 472 275 464 q 292 483 285 481 q 315 484 297 483 q 338 485 332 485 q 443 479 392 485 q 553 474 494 474 q 564 462 554 471 q 574 446 574 453 l 574 222 l 563 168 l 547 153 q 509 149 528 151 q 476 140 490 147 q 452 120 461 133 q 443 85 443 107 q 475 23 443 46 q 544 0 507 0 l 547 0 q 560 4 550 1 q 574 8 571 7 l 764 8 q 792 16 779 8 q 815 35 806 24 q 829 62 824 47 q 835 90 835 76 q 821 129 835 115 q 788 151 807 143 q 745 160 768 158 q 704 163 722 163 q 690 192 692 168 q 688 231 688 217 q 688 254 688 244 q 696 278 689 264 l 696 858 l 704 864 l 744 864 q 806 876 778 864 q 835 926 835 889 q 822 970 835 953 q 790 998 810 988 q 746 1013 769 1008 q 701 1017 722 1017 q 667 1014 683 1017 q 631 1011 650 1011 q 590 1014 610 1011 q 549 1017 571 1017 q 512 1015 531 1017 q 478 1006 493 1013 q 453 986 463 1000 q 443 950 443 972 q 463 899 443 915 q 507 876 483 883 q 551 867 531 869 q 574 858 572 865 l 574 792 l 574 724 q 573 679 574 701 q 567 639 572 657 q 547 609 561 621 q 506 597 532 597 q 483 606 492 597 q 458 615 474 615 q 432 612 444 615 q 406 608 419 608 q 377 612 390 608 q 349 615 364 615 q 322 612 335 615 q 296 608 310 608 q 283 609 290 608 q 275 619 275 610 l 275 849 q 279 856 275 851 q 286 864 283 861 q 327 868 307 865 q 362 879 347 871 q 385 903 376 888 q 394 944 394 918 q 376 993 394 969 q 329 1017 357 1017 l 74 1017 q 33 995 47 1017 q 19 950 19 974 q 21 924 19 938 q 26 899 22 911 q 39 879 31 888 q 63 869 47 871 q 78 869 67 869 q 103 867 90 868 q 128 865 117 865 q 144 864 140 864 l 161 849 l 161 814 l 161 771 q 156 729 161 746 q 150 446 151 586 q 150 163 149 306 q 142 156 147 160 q 133 153 136 153 l 51 153 q 38 144 44 153 q 25 122 31 135 q 17 97 19 110 q 14 79 14 85 "},"I":{"ha":628,"x_min":14,"x_max":613,"o":"m 14 69 q 43 129 14 110 q 108 149 72 149 q 147 145 128 149 q 185 142 165 142 q 197 142 186 142 q 219 145 208 143 q 240 151 231 147 q 250 158 250 154 l 250 772 q 258 797 257 786 q 260 821 260 807 q 259 830 260 824 q 258 838 258 836 l 253 846 l 106 846 q 75 853 90 846 q 47 874 60 861 q 26 901 35 886 q 18 932 18 917 q 26 963 18 949 q 48 986 35 976 q 78 1001 61 996 q 110 1006 94 1006 q 128 1005 121 1006 q 150 997 136 1004 l 372 997 q 433 986 394 985 q 510 985 472 988 q 574 968 547 982 q 601 911 601 954 q 577 859 601 871 q 517 847 553 847 q 467 851 490 847 q 417 854 443 854 l 389 854 l 383 849 l 383 615 q 388 591 388 600 q 389 568 389 582 q 388 546 389 556 q 383 522 388 536 l 383 158 l 400 140 l 535 140 q 561 135 547 140 q 586 120 575 129 q 605 99 597 111 q 613 74 613 86 q 581 12 613 33 q 514 -10 550 -10 l 324 -10 q 280 -3 306 -3 q 239 -4 254 -4 q 179 -7 207 -4 q 119 -10 151 -10 q 81 -6 100 -10 q 47 6 63 -3 q 23 31 32 15 q 14 69 14 46 "},"J":{"ha":781,"x_min":14,"x_max":764,"o":"m 14 204 q 35 300 14 260 q 96 376 56 340 q 113 385 101 382 q 131 388 124 388 q 172 376 153 388 q 206 346 192 364 q 229 306 221 328 q 238 264 238 283 q 234 234 238 246 q 224 212 231 222 q 206 192 217 201 q 182 169 196 182 q 180 158 182 167 q 176 147 178 150 l 176 144 q 184 129 176 138 q 199 121 192 121 l 307 121 q 331 132 318 121 q 357 158 344 143 q 378 188 369 172 q 389 213 386 204 q 390 233 389 218 q 391 264 390 247 q 393 296 392 281 q 394 317 394 311 q 397 330 394 319 q 400 343 399 340 l 397 544 l 397 572 l 394 729 q 401 766 401 746 q 400 803 400 786 l 400 832 l 389 843 q 382 844 389 843 q 371 844 375 844 q 326 841 347 844 q 281 838 304 838 q 254 838 265 838 q 233 840 243 838 q 210 844 222 842 q 182 854 199 847 q 149 917 149 879 q 178 976 149 957 q 244 996 208 996 q 270 995 260 996 q 297 990 281 994 l 531 990 q 575 997 549 997 q 617 996 601 996 l 676 996 q 738 969 713 988 q 764 911 764 951 l 764 888 q 721 856 744 863 q 669 849 697 849 q 617 852 642 849 q 567 856 593 856 q 548 855 560 856 q 536 854 536 854 l 525 843 l 528 638 l 528 610 l 531 289 q 502 176 517 232 q 460 77 488 121 q 389 6 433 33 q 272 -21 344 -21 q 175 -6 222 -21 q 92 37 128 8 q 35 108 57 65 q 14 204 14 150 "},"K":{"ha":851,"x_min":14,"x_max":836,"o":"m 19 67 q 28 101 19 89 q 50 121 36 114 q 81 130 64 128 q 117 132 99 132 l 125 138 l 125 643 q 133 674 133 658 q 133 707 133 690 q 133 774 133 746 q 128 844 132 801 q 98 860 117 860 q 60 863 79 861 q 28 874 42 864 q 14 919 14 883 q 41 980 14 963 q 106 997 68 997 q 167 988 138 997 q 231 979 197 979 q 276 983 254 979 q 321 986 297 986 q 379 969 353 986 q 406 918 406 951 q 399 888 406 900 q 378 865 393 876 q 363 862 374 864 q 340 857 353 860 q 317 852 328 854 q 301 850 306 850 q 294 849 300 850 q 283 847 289 847 q 271 845 276 846 q 264 844 265 844 q 260 842 263 843 q 258 839 258 840 q 255 801 257 821 q 247 763 253 781 l 247 604 l 258 572 l 281 572 q 288 578 281 572 q 303 593 294 585 q 320 610 311 601 q 335 626 329 619 q 369 665 350 644 q 394 708 388 685 l 492 806 q 504 826 499 813 q 510 850 510 840 q 502 861 510 854 q 485 878 494 868 q 467 903 475 888 q 460 939 460 918 q 468 970 460 958 q 489 988 476 982 q 517 996 501 994 q 549 997 533 997 q 595 994 572 997 q 642 990 618 990 q 685 994 665 990 q 729 997 706 997 q 788 982 768 997 q 808 926 808 967 q 797 885 808 900 q 767 865 785 871 q 726 857 749 858 q 682 854 703 856 q 634 803 653 832 q 590 746 615 774 q 558 714 579 733 q 515 673 536 694 q 479 630 494 651 q 464 593 464 608 q 465 584 464 590 q 465 578 465 578 q 473 567 465 575 q 482 556 481 558 q 512 490 496 531 q 547 419 528 449 q 617 297 585 360 q 682 169 650 233 l 710 143 q 745 140 724 142 q 787 133 767 139 q 822 115 807 126 q 836 82 836 103 q 810 17 836 32 q 740 1 785 1 q 696 4 717 1 q 653 7 675 7 q 610 4 631 7 q 565 1 589 1 q 524 5 544 1 q 486 17 503 8 q 459 42 469 26 q 449 82 449 57 q 463 115 449 107 q 495 126 478 124 q 527 134 513 129 q 542 156 542 139 q 533 192 542 174 q 519 224 525 211 q 517 230 519 226 q 514 235 515 233 q 494 267 507 244 q 467 317 482 289 q 436 376 453 346 q 405 433 419 407 q 379 476 390 458 q 363 496 368 493 q 344 483 360 497 q 311 451 329 469 q 278 414 293 432 q 258 388 263 396 q 249 342 250 367 q 247 293 247 317 l 247 257 q 250 225 249 244 q 253 188 251 206 q 257 156 256 169 q 258 143 258 143 l 269 129 l 367 129 q 399 110 388 129 q 411 75 411 92 q 382 20 411 39 q 321 1 353 1 q 283 4 301 1 q 244 7 264 7 q 163 1 204 7 q 79 -4 122 -4 q 34 17 49 -4 q 19 67 19 39 "},"L":{"ha":829,"x_min":14,"x_max":813,"o":"m 279 17 q 194 11 236 17 q 107 6 151 6 q 45 27 71 6 q 19 85 19 49 q 42 140 19 122 q 100 158 64 158 q 146 149 124 158 q 192 140 168 140 q 217 149 204 140 q 236 168 229 157 q 237 189 236 174 q 238 210 238 204 q 238 243 238 225 q 231 278 238 261 l 231 696 q 238 746 238 715 q 238 792 238 778 q 238 818 238 801 q 236 836 238 836 l 221 856 l 74 856 q 30 879 46 856 q 14 926 14 903 q 40 982 14 964 q 101 1000 67 1000 q 157 994 129 1000 q 213 989 185 989 q 256 992 235 989 q 299 994 276 994 q 340 992 321 994 q 381 989 360 989 q 424 992 403 989 q 468 994 444 994 q 509 992 488 994 q 549 981 531 989 q 578 957 567 972 q 590 917 590 942 q 576 876 590 893 q 536 858 561 858 l 378 858 l 372 853 q 372 829 372 846 q 370 793 371 813 q 368 757 369 774 q 367 733 367 740 q 365 720 367 731 q 361 707 363 710 l 361 168 q 369 162 361 164 q 389 158 378 160 q 411 156 400 157 q 426 153 422 154 q 440 147 436 149 q 445 143 443 144 q 449 141 447 142 q 457 140 450 140 q 482 148 471 140 q 508 157 493 156 q 531 158 514 157 q 565 160 547 160 q 599 162 583 161 q 622 163 615 163 q 662 194 650 169 q 678 251 674 218 q 684 319 683 283 q 690 386 685 356 q 708 437 694 417 q 750 457 721 457 q 790 438 775 457 q 804 392 804 418 l 804 147 q 812 126 811 133 q 813 107 813 118 q 807 77 813 94 q 792 44 801 60 q 770 19 783 29 q 742 8 757 8 l 421 8 q 408 4 418 7 q 394 0 397 1 l 392 0 q 336 8 364 0 q 279 17 308 17 "},"M":{"ha":846,"x_min":13,"x_max":831,"o":"m 13 79 q 31 21 13 42 q 88 0 50 0 q 110 1 101 0 q 133 8 119 1 l 292 8 q 306 13 297 8 q 322 25 314 18 q 335 38 329 32 q 346 49 342 44 q 348 49 346 49 q 351 50 350 50 q 365 42 360 50 q 378 25 371 35 q 397 8 386 15 q 425 0 408 0 q 463 11 449 0 q 492 43 476 22 q 495 44 493 43 q 497 44 497 44 q 508 39 501 44 q 524 27 514 33 q 547 16 533 21 q 576 11 560 11 q 609 14 593 11 q 642 17 625 17 q 685 13 664 17 q 729 10 706 10 q 766 12 747 10 q 799 22 785 14 q 822 43 813 29 q 831 81 831 57 q 817 133 831 118 q 785 154 803 149 q 753 160 768 160 q 738 168 739 161 q 737 191 738 175 q 735 226 736 207 q 733 260 733 244 q 732 283 732 276 q 729 297 731 286 q 726 310 728 307 l 726 849 q 728 851 726 849 q 732 853 729 853 q 776 869 757 864 q 813 897 796 874 q 813 909 813 900 q 814 921 814 918 q 805 957 814 943 q 780 978 796 971 q 744 990 764 986 q 704 994 725 993 q 680 995 701 994 q 647 996 658 996 q 619 995 640 996 q 590 994 597 994 q 556 980 569 997 q 536 946 543 963 q 520 875 529 929 q 500 746 511 821 q 478 592 490 672 q 456 443 467 511 q 437 330 446 375 q 422 283 428 285 l 411 310 q 406 331 410 311 q 396 376 401 350 q 385 430 390 403 q 378 474 381 457 q 357 620 365 549 q 335 767 349 692 q 321 865 326 814 q 292 957 315 917 q 263 983 282 972 q 226 994 243 994 l 68 994 q 27 972 42 994 q 13 926 13 950 q 26 883 13 894 q 56 867 39 871 q 90 860 74 863 q 111 843 106 857 q 112 815 111 835 q 113 771 113 794 l 113 729 l 113 701 l 113 664 l 113 618 q 112 578 113 596 q 111 560 111 561 q 110 544 111 557 q 109 519 110 532 q 108 493 108 506 q 107 478 107 481 l 107 449 l 107 406 q 108 361 107 382 q 108 332 108 340 l 108 304 l 111 168 q 96 146 111 150 q 62 138 81 142 q 28 122 43 133 q 13 79 13 111 m 613 767 l 613 506 q 606 463 606 485 l 606 421 l 606 381 q 613 338 606 358 l 613 163 q 599 146 613 154 q 567 131 585 138 q 531 122 549 125 q 507 118 514 118 q 514 192 507 136 q 532 319 521 247 q 556 471 543 392 q 581 615 569 550 q 601 724 593 681 q 613 767 610 767 m 226 733 l 232 728 q 245 633 233 683 q 264 543 257 583 q 283 426 275 485 q 301 310 290 368 q 319 226 310 268 q 329 140 329 183 l 329 132 q 324 125 329 124 l 253 142 q 238 151 250 142 q 226 168 226 160 l 226 733 "},"N":{"ha":851,"x_min":14,"x_max":836,"o":"m 503 233 q 469 311 482 271 q 438 392 456 351 q 399 481 422 426 q 352 585 375 535 q 313 671 329 635 q 297 707 297 707 l 292 707 l 292 429 q 297 400 297 414 q 297 372 297 388 q 297 343 297 357 q 292 315 297 331 l 292 174 q 307 151 292 163 q 332 140 322 140 q 353 147 344 140 q 375 153 363 153 l 389 153 q 406 148 394 151 q 427 141 417 144 q 445 135 438 138 q 454 131 453 132 l 476 108 l 476 89 q 468 45 476 67 q 432 17 460 24 q 331 13 378 19 q 231 6 283 6 l 210 6 q 181 6 201 6 q 139 8 161 7 q 97 10 117 8 q 68 11 76 11 q 30 34 46 18 q 14 74 14 50 l 14 88 q 31 131 19 107 q 68 158 43 156 q 87 159 74 158 q 115 160 100 160 q 142 162 129 161 q 161 163 156 163 l 172 174 q 174 231 169 204 q 178 288 178 258 q 172 570 178 429 q 167 854 167 711 l 156 864 l 57 864 q 40 870 46 864 q 30 885 33 876 q 25 905 26 894 q 24 922 24 915 q 46 974 24 953 q 101 994 68 994 l 258 994 q 306 971 286 994 q 335 924 326 947 q 347 891 338 917 q 367 835 357 865 q 388 778 378 804 q 400 744 397 751 q 410 724 401 740 q 427 688 418 707 q 444 651 436 668 q 454 631 453 635 q 456 624 454 629 q 460 612 458 618 q 463 600 461 606 q 465 593 465 594 q 516 464 489 533 q 574 332 543 394 q 579 323 575 329 q 585 315 583 317 q 586 315 586 314 q 588 318 586 318 q 588 342 588 325 q 590 376 589 358 q 590 411 590 394 q 590 435 590 428 q 588 449 590 438 q 582 463 585 460 l 582 854 l 568 864 q 522 868 547 865 q 476 880 497 871 q 440 906 454 889 q 426 951 426 922 q 439 983 426 968 q 471 997 451 997 l 682 997 q 705 1006 696 1004 q 728 1007 714 1007 q 803 987 769 1007 q 836 922 836 967 q 835 910 836 919 q 835 897 835 900 q 810 875 825 882 q 777 866 794 868 q 742 864 760 864 q 710 864 724 864 l 704 858 l 707 549 l 707 522 l 710 71 q 687 21 710 42 q 636 0 664 0 q 588 18 611 0 q 557 60 564 36 l 503 233 "},"O":{"ha":754,"x_min":14,"x_max":738,"o":"m 365 1040 q 418 1035 394 1040 q 464 1019 442 1029 q 508 995 486 1010 q 553 963 529 981 q 578 946 564 954 q 601 925 593 938 q 632 874 618 900 q 667 828 646 849 q 718 688 699 758 q 738 542 738 617 q 726 391 738 468 q 685 245 714 314 q 606 122 656 176 q 482 38 557 67 q 454 24 465 31 q 433 13 443 18 q 410 3 422 7 q 376 0 397 0 q 315 11 340 0 q 258 38 289 22 q 244 44 256 39 q 221 56 233 50 q 197 68 208 63 q 182 76 185 74 q 133 124 157 93 q 90 190 110 154 q 54 260 69 225 q 31 321 39 294 q 25 337 28 326 q 20 358 22 347 q 16 376 18 368 q 14 386 14 385 l 14 610 q 17 625 14 611 q 25 656 21 639 q 34 691 29 674 q 42 718 39 708 q 86 834 60 776 q 151 938 113 892 q 243 1012 190 983 q 365 1040 296 1040 m 133 522 q 142 415 133 469 q 167 310 150 360 q 185 272 171 297 q 219 224 200 247 q 257 182 238 200 q 292 164 276 164 l 428 164 q 488 185 461 164 q 533 237 514 207 q 565 301 553 267 q 585 360 578 335 q 599 393 592 379 q 607 431 607 407 l 607 610 q 591 678 599 646 q 571 740 583 711 q 539 797 558 769 q 488 849 519 824 q 433 891 457 872 q 371 910 410 910 q 265 867 310 910 q 192 763 221 824 q 148 635 163 701 q 133 522 133 568 "},"P":{"ha":803,"x_min":14,"x_max":786,"o":"m 14 85 q 15 108 14 94 q 22 133 17 121 q 35 153 26 144 q 57 161 43 161 l 199 161 l 210 174 l 210 565 q 216 679 211 625 q 221 792 221 733 l 221 838 q 213 854 218 844 q 199 865 208 864 l 167 865 q 130 863 147 865 q 93 860 113 860 q 41 881 58 860 q 24 933 24 901 q 26 956 24 943 q 35 980 29 969 q 51 998 42 990 q 74 1006 60 1006 q 86 1006 78 1006 q 104 1007 94 1007 q 122 1007 114 1007 q 133 1007 131 1007 q 185 1003 161 1007 q 235 1000 208 1000 q 253 1001 246 1000 q 275 1006 261 1003 l 508 1006 q 519 1003 510 1006 q 541 999 529 1001 q 565 994 553 997 q 585 990 578 992 q 643 969 615 983 q 694 936 671 956 q 723 901 707 925 q 753 847 739 876 q 776 791 767 818 q 786 750 786 764 l 786 636 q 763 559 786 601 q 704 479 739 517 q 628 417 669 442 q 553 392 588 392 l 351 392 l 346 386 q 341 351 343 369 q 335 315 339 332 l 335 179 l 340 168 q 344 164 342 167 q 346 161 346 161 l 488 161 q 511 153 501 161 q 528 133 521 144 q 538 108 535 122 q 542 85 542 94 l 542 60 q 505 28 528 40 q 458 15 482 15 q 419 18 436 15 q 378 28 403 21 l 210 28 q 159 8 186 15 q 104 0 132 0 q 40 23 67 0 q 14 85 14 46 m 343 528 l 351 522 q 373 522 354 522 q 401 521 392 521 q 499 526 451 521 q 584 551 547 532 q 644 606 621 569 q 667 704 667 642 q 640 797 667 764 q 571 844 613 829 q 480 863 529 860 q 386 865 431 865 l 340 865 l 335 860 q 334 841 335 857 q 333 818 333 825 q 333 775 333 803 q 343 729 332 747 l 343 528 "},"Q":{"ha":775,"x_min":14,"x_max":760,"o":"m 400 -32 l 394 -26 q 303 -14 349 -26 q 218 21 258 -1 q 144 75 178 43 q 90 147 111 107 q 80 168 86 156 q 67 192 74 181 q 56 213 61 204 q 51 224 51 222 l 14 386 l 14 576 q 17 599 14 582 q 25 638 21 617 q 34 678 29 658 q 42 707 39 697 q 86 815 58 761 q 153 911 114 868 q 244 981 193 954 q 358 1007 296 1007 q 420 998 392 1007 q 476 974 449 989 q 490 967 479 972 q 512 955 500 961 q 533 943 524 949 q 546 936 543 938 q 618 853 590 904 q 667 756 646 803 q 678 738 671 746 q 688 718 685 729 q 702 653 697 685 q 715 588 707 621 l 715 419 q 674 257 696 335 q 607 104 653 179 q 597 94 604 101 q 583 78 590 86 q 567 64 575 71 q 557 56 560 57 q 540 42 546 46 q 531 36 533 39 q 526 27 528 33 q 525 7 525 21 q 526 -31 525 -6 q 534 -80 528 -56 q 551 -122 540 -104 q 582 -140 563 -140 q 620 -122 608 -140 q 636 -75 632 -103 q 641 -15 640 -47 q 647 44 642 17 q 665 91 651 72 q 708 110 679 110 q 744 87 732 110 q 758 44 756 64 q 759 16 758 38 q 760 -12 760 -6 q 752 -100 760 -53 q 725 -187 744 -147 q 672 -255 706 -228 q 588 -282 639 -282 q 502 -259 538 -282 q 445 -199 467 -236 q 413 -118 424 -162 q 400 -32 401 -74 m 231 183 q 244 151 231 165 q 278 128 258 138 q 318 113 297 118 q 353 108 339 108 q 385 113 369 108 q 400 139 400 118 q 397 169 400 153 q 383 196 393 185 q 362 220 376 206 q 346 235 347 235 l 286 235 q 270 229 279 235 q 252 215 261 224 q 237 198 243 207 q 231 183 231 189 m 333 349 q 415 320 381 349 q 476 256 450 292 q 490 224 486 242 q 503 190 493 206 l 506 190 l 508 190 q 515 196 511 192 q 519 201 518 200 q 567 313 554 258 q 596 431 581 368 l 596 588 l 563 707 q 542 749 558 722 q 503 801 525 775 q 458 847 482 828 q 417 865 435 865 l 313 865 q 305 863 311 865 q 296 860 299 861 q 224 809 251 838 q 181 747 197 781 q 154 673 164 713 q 133 588 144 633 l 133 386 q 143 335 133 363 q 167 289 153 308 l 171 288 q 174 288 172 288 q 176 289 176 289 q 190 299 179 290 q 204 311 201 308 q 267 338 232 328 q 333 349 301 349 "},"R":{"ha":851,"x_min":14,"x_max":836,"o":"m 585 71 q 585 148 586 108 q 579 227 585 188 q 562 304 574 267 q 531 375 550 342 q 512 410 521 390 q 488 440 503 429 q 454 447 468 444 q 427 451 440 450 q 400 451 414 451 q 369 451 388 451 l 318 451 q 293 449 310 451 q 275 446 276 447 l 269 440 l 269 179 q 294 160 269 167 q 349 146 319 154 q 403 122 378 138 q 428 71 428 106 q 416 36 428 49 q 387 17 404 24 q 349 8 369 10 q 313 6 329 6 l 297 6 q 253 6 285 6 q 188 8 222 7 q 122 10 153 8 q 79 11 92 11 q 53 17 65 10 q 33 38 42 25 q 19 64 24 50 q 14 90 14 78 q 26 131 14 117 q 58 153 39 146 q 101 161 78 160 q 144 163 124 163 q 151 171 147 165 q 156 179 156 176 l 153 489 l 153 517 l 144 843 l 133 854 l 46 875 q 24 899 28 881 q 19 932 19 918 q 31 976 19 954 q 68 997 42 997 l 281 997 q 308 1006 296 1006 q 336 1007 321 1007 q 481 997 408 1007 q 613 958 554 988 q 707 874 671 929 q 743 729 743 819 q 736 647 743 690 q 704 571 729 603 q 683 550 696 560 q 657 531 669 540 q 636 509 644 521 q 628 481 628 497 l 628 468 q 672 372 656 425 q 699 272 688 318 q 703 228 703 256 q 715 185 704 201 q 739 164 725 169 q 767 154 753 158 q 794 143 781 150 q 818 119 808 136 q 833 93 831 100 q 836 68 836 86 q 821 22 836 44 q 778 0 806 0 l 775 0 q 719 3 750 4 q 661 6 689 3 q 612 24 633 10 q 585 71 590 38 m 301 864 q 282 858 294 863 q 269 843 269 854 l 269 604 q 274 590 269 600 q 281 576 278 581 l 313 576 q 347 579 331 576 q 381 582 364 582 q 421 579 401 582 q 463 576 440 576 l 508 576 q 591 624 558 592 q 624 711 624 657 q 615 774 624 743 q 579 826 607 806 q 468 858 526 850 q 351 865 410 865 q 326 865 344 865 q 301 864 308 865 "},"S":{"ha":699,"x_min":14,"x_max":682,"o":"m 82 425 q 124 408 111 425 q 142 365 136 390 q 149 313 147 340 q 156 267 150 286 q 191 205 167 233 q 247 164 215 176 q 267 158 260 160 q 280 154 274 156 q 292 151 286 153 q 307 143 297 149 l 411 143 q 444 156 426 154 q 481 164 461 158 q 508 180 497 168 q 526 206 518 192 q 539 235 533 219 q 551 263 544 250 l 551 360 q 545 374 551 363 q 535 392 539 386 q 488 438 514 424 q 431 458 461 453 q 369 463 401 463 q 301 468 336 464 q 194 494 246 475 q 102 545 142 513 q 38 624 63 578 q 14 732 14 669 q 18 785 14 761 q 29 831 22 808 q 47 875 36 853 q 74 925 58 897 q 115 961 89 942 q 170 997 140 981 q 230 1023 200 1013 q 283 1033 260 1033 l 296 1033 q 320 1025 303 1031 q 356 1013 338 1019 q 392 999 375 1006 q 415 990 408 993 q 452 967 429 983 q 492 951 475 951 l 497 951 q 504 978 500 964 q 515 1006 508 993 q 533 1026 522 1018 q 560 1035 544 1035 q 602 1009 588 1035 q 617 957 617 983 l 617 701 q 601 664 617 681 q 565 647 586 647 q 523 669 535 647 q 506 721 511 692 q 495 778 501 750 q 471 821 489 807 q 386 868 433 849 q 293 888 339 888 q 234 876 263 888 q 183 846 206 865 q 146 801 160 826 q 132 744 132 775 q 154 657 132 686 q 213 615 176 628 q 294 600 249 603 q 383 593 339 597 q 455 583 418 590 q 525 567 492 575 q 530 564 526 565 q 535 561 533 563 q 592 511 565 536 q 640 458 619 486 q 671 397 660 431 q 682 319 682 363 q 676 250 682 286 q 659 180 671 214 q 628 117 647 146 q 579 67 608 88 q 569 61 576 65 q 551 52 561 57 q 534 44 542 47 q 525 39 526 40 q 490 15 507 28 q 449 1 472 1 l 313 1 q 275 10 293 1 q 240 28 257 18 q 204 47 222 39 q 165 56 186 56 q 145 45 151 56 q 133 23 139 35 q 118 1 128 11 q 88 -10 108 -10 q 44 8 64 -10 q 25 50 25 25 l 25 371 q 42 410 25 396 q 82 425 58 425 "},"T":{"ha":721,"x_min":14,"x_max":704,"o":"m 106 86 q 107 107 106 94 q 113 131 108 119 q 124 151 117 143 q 144 160 132 160 l 275 160 l 292 178 l 292 868 l 286 874 q 275 876 283 875 q 264 876 267 876 q 249 876 260 876 q 236 874 239 875 q 170 835 190 863 q 143 776 150 808 q 137 708 136 743 q 135 645 138 674 q 118 598 132 617 q 69 579 104 579 q 28 606 42 579 q 14 657 14 632 l 14 924 q 19 947 14 933 q 32 974 24 961 q 51 997 40 988 q 74 1007 61 1007 l 242 1007 q 263 1015 256 1014 q 283 1015 271 1015 q 303 1015 294 1015 q 324 1007 311 1014 l 633 1007 q 683 983 661 1007 q 704 933 704 960 l 704 657 q 688 604 704 629 q 642 579 671 579 q 597 600 618 579 q 576 646 576 621 l 576 793 q 565 834 576 817 q 534 863 553 851 q 494 881 515 875 q 453 886 472 886 q 442 885 450 886 q 432 885 433 885 l 426 879 q 424 838 426 863 q 417 793 422 813 l 419 657 l 419 629 l 426 183 l 438 172 q 490 171 460 172 q 548 162 521 169 q 594 138 575 154 q 613 88 613 121 q 604 55 613 68 q 582 34 596 42 q 551 23 568 26 q 515 19 533 19 q 465 28 489 19 q 414 38 440 38 q 329 24 369 38 q 244 10 289 10 q 206 15 229 10 q 160 31 183 21 q 122 55 138 40 q 106 86 106 69 "},"U":{"ha":851,"x_min":14,"x_max":835,"o":"m 131 249 l 131 856 l 42 879 q 18 903 22 885 q 14 936 14 921 q 28 987 14 964 q 74 1010 43 1010 l 318 1010 q 366 990 347 1010 q 385 942 385 969 q 374 902 385 917 q 347 881 364 888 q 310 872 331 874 q 269 868 289 869 q 260 839 264 865 q 256 779 257 813 q 253 713 254 746 q 253 668 253 681 q 252 629 253 651 q 261 592 251 607 l 261 271 q 272 238 261 258 q 298 197 282 217 q 331 161 314 176 q 363 146 349 146 l 460 146 q 499 159 479 146 q 538 191 519 172 q 568 232 556 210 q 585 271 581 254 q 590 533 588 393 q 590 799 592 672 q 593 814 592 801 q 596 831 594 826 l 596 833 q 592 853 596 843 q 579 868 589 864 q 544 876 563 871 q 511 890 526 881 q 485 913 496 899 q 475 947 475 926 q 495 993 475 976 q 543 1010 515 1010 q 569 1007 557 1010 q 593 1004 581 1004 q 642 1008 618 1004 q 690 1011 665 1011 q 703 1011 694 1011 q 722 1010 713 1011 q 740 1010 732 1010 q 753 1010 750 1010 q 810 986 785 1007 q 835 931 835 965 q 825 896 835 908 q 800 878 815 883 q 767 871 785 872 q 732 868 749 869 q 721 857 721 865 q 721 843 721 850 q 724 808 721 825 q 726 772 726 792 q 726 747 726 757 q 718 722 725 736 l 718 303 q 708 260 710 282 q 699 217 707 238 q 659 133 683 176 q 601 64 635 89 q 511 19 558 36 q 414 3 464 3 q 279 37 340 3 q 176 129 218 71 q 151 188 158 154 q 131 249 143 221 "},"V":{"ha":835,"x_min":14,"x_max":818,"o":"m 128 868 q 147 848 143 861 q 156 819 151 835 q 162 792 157 814 q 172 746 167 771 q 181 699 176 721 q 188 672 186 678 q 191 659 188 669 q 199 637 194 649 q 206 615 203 625 q 210 601 210 604 q 218 550 217 576 q 226 499 219 524 q 269 344 246 419 q 307 189 292 268 q 313 154 311 172 q 316 118 314 136 q 324 83 318 100 q 340 53 329 67 q 381 19 356 33 q 429 4 406 4 q 478 24 454 4 q 508 64 503 43 l 563 319 q 588 394 581 353 q 606 471 596 435 q 651 651 631 563 q 693 831 671 739 q 721 868 701 853 q 757 872 739 869 q 788 881 775 875 q 810 901 801 888 q 818 936 818 914 q 806 969 818 956 q 777 992 794 983 q 740 1006 760 1001 q 704 1010 721 1010 l 525 1010 q 485 993 500 1010 q 469 953 469 976 q 498 892 469 917 q 563 868 526 868 q 569 860 569 867 q 568 850 568 853 q 566 824 568 832 q 557 792 564 815 q 530 695 543 743 q 514 596 517 647 l 438 292 q 433 278 438 289 q 421 265 428 268 q 411 282 414 272 l 343 542 l 343 581 l 269 863 q 275 868 269 868 q 310 876 293 872 q 342 886 328 879 q 365 906 356 893 q 374 942 374 918 q 357 988 374 967 q 313 1010 340 1010 l 68 1010 q 29 990 44 1010 q 14 947 14 969 q 24 906 14 921 q 50 883 33 890 q 87 872 67 875 q 128 868 107 869 "},"W":{"ha":840,"x_min":13,"x_max":824,"o":"m 13 939 q 21 976 13 963 q 44 998 29 990 q 76 1008 58 1006 q 114 1010 94 1010 q 156 1007 132 1010 q 202 997 181 1004 q 239 974 224 989 q 254 936 254 960 q 246 903 254 914 q 227 887 238 893 q 205 876 217 881 q 188 863 193 872 l 188 833 q 198 760 188 794 q 215 689 208 726 q 247 524 231 607 q 275 357 264 440 l 281 357 q 283 369 281 357 q 290 399 286 382 q 297 435 293 417 q 301 467 300 454 q 317 583 311 525 q 329 700 322 642 q 332 715 329 703 q 338 741 335 728 q 343 767 340 754 q 346 782 346 779 l 346 822 l 346 863 q 326 881 336 874 q 308 897 317 889 q 295 915 300 904 q 290 942 290 925 q 310 990 290 969 q 358 1010 329 1010 l 361 1010 q 415 1008 381 1007 q 482 1004 449 1008 q 540 986 515 1000 q 564 940 564 972 q 557 906 564 918 q 541 887 550 894 q 524 873 532 879 q 514 857 515 867 l 514 819 q 518 771 514 810 q 528 680 522 732 q 542 570 535 628 q 558 464 550 513 q 572 383 565 415 q 582 351 578 351 l 585 351 q 619 526 606 440 q 644 700 633 611 q 655 767 649 735 q 661 833 661 799 l 661 874 q 642 891 653 886 q 623 901 632 896 q 607 915 614 906 q 600 946 600 924 q 622 994 600 978 q 674 1010 644 1010 q 725 1006 697 1010 q 775 999 753 1001 q 813 978 801 996 q 824 936 824 961 q 819 909 824 921 q 808 887 814 897 q 795 866 801 876 q 786 842 789 856 q 756 670 767 756 q 726 499 744 585 q 723 485 725 494 q 718 466 721 476 q 713 447 715 456 q 710 433 711 438 q 697 370 703 411 q 683 281 690 329 q 665 184 675 233 q 642 95 656 135 q 610 30 629 56 q 565 4 590 4 q 514 32 535 4 q 499 67 506 43 q 490 119 493 92 q 485 174 486 147 q 482 217 483 201 q 481 235 482 221 q 478 268 479 250 q 477 301 478 286 q 476 319 476 315 q 463 440 471 379 q 443 558 454 500 q 437 585 440 569 q 432 601 433 601 l 426 601 q 422 585 425 601 q 417 558 418 569 q 387 330 400 444 q 351 101 374 215 q 344 65 347 82 q 333 33 340 47 q 311 12 325 19 q 272 4 297 4 q 240 9 253 4 q 215 32 226 14 q 196 83 203 51 q 185 150 189 115 q 178 219 181 185 q 171 276 175 253 q 124 548 149 413 q 74 819 99 683 q 59 857 69 843 q 38 882 49 871 q 20 906 28 893 q 13 939 13 918 "},"X":{"ha":840,"x_min":14,"x_max":824,"o":"m 14 90 q 16 110 14 99 q 24 133 18 122 q 37 150 29 143 q 57 157 44 157 l 122 157 q 140 165 131 157 q 158 182 150 172 q 173 202 167 192 q 182 217 179 213 q 203 269 197 240 q 226 319 210 297 q 260 367 239 336 q 301 431 281 397 q 337 498 322 465 q 351 550 351 531 q 351 568 351 561 q 346 586 351 575 q 337 603 343 592 q 324 628 331 615 q 310 651 317 640 q 301 667 304 663 q 294 678 300 669 q 283 697 289 688 q 271 715 276 707 q 264 726 265 724 q 247 763 254 742 q 231 806 239 785 q 210 844 222 826 q 182 868 199 861 q 129 868 157 868 q 78 874 101 868 q 39 897 54 881 q 24 946 24 913 q 37 990 24 971 q 79 1010 50 1010 l 301 1010 l 367 993 q 390 971 386 989 q 394 938 394 953 q 385 903 394 914 q 364 884 375 892 q 343 869 353 876 q 333 847 333 861 q 344 810 333 836 q 370 755 356 783 q 400 705 385 726 q 424 683 415 683 q 449 706 433 683 q 478 757 464 728 q 503 813 493 786 q 514 851 514 840 q 503 877 514 868 q 481 895 493 886 q 459 916 469 904 q 449 951 449 928 q 457 984 449 972 q 479 1001 465 996 q 510 1008 493 1007 q 543 1010 526 1010 q 585 1007 565 1010 q 625 1004 604 1004 q 669 1007 649 1004 q 713 1010 689 1010 q 749 1008 731 1010 q 782 999 768 1006 q 805 978 796 992 q 814 942 814 965 q 799 897 814 911 q 761 876 783 882 q 713 869 739 869 q 667 868 688 868 q 638 836 651 857 q 613 791 625 815 q 589 742 600 767 q 568 700 578 717 q 562 689 567 697 q 552 670 557 681 q 542 651 547 660 q 536 640 538 642 q 522 619 531 631 q 506 594 514 607 q 492 568 497 581 q 486 543 486 556 q 501 506 486 536 q 538 433 515 475 q 588 346 561 392 q 640 260 615 300 q 681 192 664 219 q 704 161 699 164 q 743 149 722 150 q 782 147 764 149 q 812 133 800 144 q 824 89 824 122 q 797 33 824 51 q 735 15 771 15 q 641 20 688 15 q 547 26 594 25 q 494 42 519 32 q 469 83 469 51 q 481 119 469 107 q 508 141 493 132 q 535 158 522 150 q 547 178 547 165 l 547 183 q 517 231 532 206 q 492 282 503 257 q 482 310 489 289 q 466 352 475 331 q 446 390 457 374 q 425 407 435 407 q 417 407 421 407 q 411 401 413 407 q 356 296 383 343 q 301 194 329 249 l 301 181 q 313 153 301 164 q 337 134 324 143 q 361 113 350 125 q 372 81 372 101 q 360 43 372 58 q 324 26 347 28 q 301 26 319 26 q 261 24 282 25 q 222 22 240 22 q 199 21 203 21 q 185 18 196 21 q 163 13 175 15 q 141 7 151 10 q 128 4 131 4 l 125 4 q 49 25 83 4 q 14 90 14 46 "},"Y":{"ha":851,"x_min":14,"x_max":835,"o":"m 165 81 q 188 130 165 108 q 239 151 211 151 q 281 148 261 151 q 325 144 301 144 q 346 145 332 144 q 363 146 360 146 l 367 151 l 367 407 l 281 597 q 249 654 257 624 q 226 717 240 685 q 218 728 225 719 q 210 738 211 736 q 192 768 200 751 q 178 801 185 785 q 162 833 171 818 q 139 858 153 847 q 99 859 121 858 q 59 865 78 860 q 27 883 40 869 q 14 921 14 896 q 28 966 14 949 q 65 993 43 983 q 111 1006 86 1003 q 158 1010 136 1010 l 167 1010 q 180 1007 169 1010 q 193 1004 190 1004 q 244 1004 214 1003 q 301 1001 274 1006 q 349 981 329 996 q 368 932 368 965 q 355 895 368 907 q 326 878 342 883 q 298 868 311 872 q 285 853 285 864 q 285 849 285 851 q 286 847 286 847 q 297 819 289 840 q 307 793 304 799 l 389 629 q 397 612 393 622 q 407 592 401 601 q 419 576 413 583 q 435 569 426 569 q 442 569 438 569 q 449 575 447 569 q 457 590 451 579 q 469 613 463 600 q 480 636 475 625 q 488 651 485 647 q 491 662 488 653 q 498 681 494 671 q 504 700 501 692 q 508 711 507 708 q 525 744 515 728 q 543 776 535 760 q 558 808 551 792 q 564 844 564 825 q 564 853 564 847 q 563 863 564 860 q 541 883 554 876 q 515 898 528 890 q 494 917 503 906 q 486 953 486 928 q 506 997 486 983 q 554 1010 526 1010 q 598 1007 578 1010 q 642 1004 618 1004 q 683 1007 664 1004 q 724 1010 703 1010 q 761 1004 742 1010 q 797 988 781 999 q 824 963 814 978 q 835 926 835 947 q 833 908 835 918 q 826 890 831 899 q 815 874 822 881 q 797 868 807 868 l 721 868 q 713 862 718 868 q 704 853 707 856 q 698 841 703 850 q 688 819 693 832 q 676 795 682 807 q 667 776 669 783 q 582 599 624 688 q 497 422 540 511 q 494 414 496 419 q 492 407 492 408 l 492 206 l 503 151 l 508 146 q 531 145 515 146 q 565 144 547 144 q 599 142 583 143 q 622 140 615 140 q 674 125 647 138 q 700 85 700 113 q 685 38 700 63 q 644 13 671 13 l 454 13 l 428 4 l 247 4 q 190 26 215 4 q 165 81 165 49 "},"Z":{"ha":743,"x_min":14,"x_max":726,"o":"m 14 83 q 31 137 14 110 q 69 190 47 164 q 115 241 92 217 q 150 288 138 265 q 212 378 178 335 q 275 467 246 421 q 318 535 297 500 q 363 603 339 569 q 400 653 372 617 q 457 730 428 690 q 509 804 486 769 q 532 850 532 839 q 530 863 532 856 q 519 869 528 869 l 313 869 q 306 867 311 869 q 293 860 300 864 q 280 853 286 857 q 269 847 274 850 q 238 794 244 832 q 228 717 232 756 q 212 648 224 678 q 164 618 200 618 q 128 635 140 618 q 113 674 115 651 q 112 687 113 678 q 111 707 111 696 q 111 728 111 718 q 111 742 111 738 q 111 758 111 747 q 111 781 111 769 q 112 800 111 792 q 113 810 113 808 q 115 825 113 813 q 119 851 117 838 q 125 876 122 864 q 128 890 128 888 q 135 938 132 917 q 147 975 139 960 q 172 998 156 990 q 222 1006 189 1006 l 247 1006 q 294 1005 263 1006 q 367 1003 326 1004 q 451 1002 407 1003 q 536 1001 496 1001 q 608 1000 576 1000 q 656 1000 640 1000 q 696 982 681 996 q 711 942 711 968 q 695 879 711 913 q 657 814 679 846 q 610 754 635 782 q 569 706 586 726 q 526 636 542 675 q 488 564 511 597 q 422 481 457 521 q 357 396 386 440 q 353 389 356 394 q 346 377 350 383 q 339 365 342 371 q 335 358 336 360 q 308 318 328 346 q 267 259 288 290 q 230 202 246 228 q 214 168 214 176 q 217 153 214 161 q 232 146 221 146 l 525 146 q 540 152 528 146 q 558 163 553 158 q 588 201 579 176 q 599 256 596 226 q 604 315 603 285 q 611 369 606 344 q 629 408 617 393 q 669 424 642 424 q 712 401 697 424 q 726 353 726 378 l 726 75 q 702 32 726 51 q 656 13 678 13 l 226 13 q 195 3 211 4 q 163 3 179 3 q 115 5 140 3 q 67 15 89 7 q 29 38 44 22 q 14 83 14 54 "},"[":{"ha":694,"x_min":196,"x_max":435,"o":"m 196 914 q 206 935 196 929 q 228 940 215 940 q 241 940 233 940 q 257 938 249 939 q 260 937 258 938 q 263 936 261 936 q 281 933 272 935 q 294 932 289 932 q 309 934 300 932 q 329 938 318 936 q 343 940 336 939 q 357 942 350 942 q 367 943 361 943 q 376 943 372 943 q 417 933 399 943 q 435 893 435 922 q 426 861 435 871 q 403 851 417 851 q 388 853 397 851 q 369 857 379 854 l 367 857 q 349 860 357 858 q 335 861 342 861 q 304 824 304 861 l 304 32 q 314 -2 304 8 q 336 -12 324 -12 q 349 -11 342 -12 q 364 -8 357 -10 l 367 -8 q 396 -3 382 -3 q 423 -15 411 -3 q 435 -57 435 -26 q 417 -88 435 -81 q 376 -96 399 -96 q 365 -96 371 -96 q 354 -94 360 -96 q 338 -93 346 -94 q 324 -92 331 -92 q 301 -87 311 -89 q 285 -86 290 -86 q 272 -87 279 -86 q 257 -90 264 -89 q 251 -92 253 -90 q 235 -94 243 -93 q 221 -96 228 -96 q 203 -88 210 -96 q 196 -57 196 -81 l 196 914 "},"\\":{"ha":797,"x_min":14,"x_max":781,"o":"m 488 294 l 335 593 l 324 610 l 182 886 q 177 894 181 889 q 172 903 174 900 q 90 1048 133 975 q 14 1196 47 1121 l 14 1207 q 24 1231 14 1222 q 48 1244 33 1240 q 78 1250 63 1249 q 104 1251 93 1251 q 150 1224 133 1251 q 158 1204 151 1218 q 171 1174 164 1190 q 184 1145 178 1158 q 193 1126 190 1132 q 325 885 256 1003 q 454 642 394 767 q 524 490 490 567 q 601 343 558 414 q 628 285 617 315 q 656 229 639 256 q 704 151 679 190 q 749 71 729 113 q 761 41 753 60 q 774 9 769 22 q 781 -6 779 -4 l 781 -43 q 772 -55 781 -51 q 751 -59 763 -58 q 731 -60 740 -60 q 718 -60 721 -60 q 689 -60 707 -60 q 661 -49 672 -60 q 626 8 638 -25 q 601 71 614 40 q 563 151 585 111 q 519 229 542 192 q 504 262 510 244 q 488 294 499 279 "},"`":{"ha":296,"x_min":13,"x_max":279,"o":"m 13 964 q 13 979 13 971 q 19 996 13 989 q 31 1008 24 1000 q 46 1023 38 1015 q 60 1037 54 1031 q 68 1044 67 1043 q 76 1049 69 1046 q 92 1058 83 1053 q 108 1066 100 1063 q 117 1071 115 1069 q 141 1089 129 1079 q 165 1108 153 1099 q 192 1124 178 1118 q 222 1131 206 1131 q 265 1113 250 1131 q 279 1071 279 1096 q 265 1031 279 1047 q 231 1005 251 1015 q 189 986 211 994 q 150 968 167 978 q 105 940 126 956 q 54 924 83 924 q 13 964 13 924 "},"a":{"ha":775,"x_min":14,"x_max":758,"o":"m 14 224 q 47 356 14 310 q 131 424 81 403 q 240 451 181 446 q 349 460 299 456 q 432 475 399 464 q 465 519 465 486 q 457 564 465 543 q 426 597 449 585 q 401 610 418 601 q 383 618 385 618 l 253 618 q 238 606 242 618 q 230 577 233 594 q 222 539 226 560 q 209 501 218 518 q 183 472 200 483 q 136 460 165 460 q 63 489 92 460 q 35 561 35 518 q 43 606 35 586 q 65 642 51 625 q 97 673 79 658 q 133 700 115 688 q 165 724 149 711 q 204 738 182 738 l 417 738 q 459 722 435 738 q 506 686 483 707 q 547 642 529 665 q 568 601 564 618 q 572 586 569 597 q 578 563 575 575 q 583 541 581 551 q 585 526 585 531 l 585 483 q 585 445 585 467 q 579 407 586 424 l 579 172 q 613 133 579 133 q 640 153 635 133 q 650 197 646 172 q 663 240 654 221 q 701 260 672 260 q 728 251 717 260 q 746 231 739 243 q 756 203 753 218 q 758 175 758 189 q 749 114 758 144 q 722 59 739 83 q 678 19 704 35 q 619 4 653 4 q 574 10 593 4 q 531 32 554 17 q 516 45 522 36 q 503 63 510 54 q 490 79 497 72 q 472 86 482 86 l 465 86 q 426 63 446 76 q 385 35 406 49 q 342 13 364 22 q 296 4 319 4 l 171 4 q 144 12 156 4 q 122 26 133 19 q 40 109 65 60 q 14 224 14 158 m 122 225 q 126 199 122 214 q 138 169 131 183 q 157 144 146 154 q 182 135 168 135 l 324 135 q 333 139 325 135 q 346 146 340 143 q 359 154 349 149 q 372 161 369 160 q 442 233 424 196 q 460 331 460 271 l 460 347 q 454 349 458 347 q 449 351 450 351 q 448 352 449 351 q 446 353 447 353 l 443 351 q 420 348 439 351 q 381 341 401 344 q 341 334 360 338 q 318 331 322 331 q 251 322 285 325 q 182 314 217 319 q 150 292 164 313 q 133 261 143 282 q 122 225 122 240 "},"b":{"ha":792,"x_min":13,"x_max":775,"o":"m 313 51 q 308 51 311 51 q 301 50 304 50 q 274 20 283 29 q 239 11 264 11 q 194 33 207 11 q 182 85 182 56 q 190 156 182 121 q 199 228 199 192 q 198 251 199 242 q 190 274 197 260 l 190 850 q 188 852 190 850 q 182 856 185 854 q 176 858 179 857 q 172 860 172 860 q 156 858 169 860 q 139 856 142 856 q 138 855 139 856 q 136 854 138 854 q 98 856 119 854 q 58 866 76 858 q 26 887 39 874 q 14 922 14 900 q 13 938 14 931 q 19 953 13 946 q 26 960 21 954 q 38 972 32 965 q 49 983 44 978 q 57 990 54 989 q 68 996 63 996 l 238 996 q 261 990 249 996 q 285 976 274 985 q 303 955 296 967 q 310 931 310 943 l 310 692 q 315 683 310 685 q 324 681 319 681 q 353 690 340 681 q 380 710 367 699 q 407 731 393 722 q 438 740 421 740 l 574 740 q 610 725 596 740 q 639 697 625 710 q 686 648 667 671 q 721 601 706 625 q 747 549 736 576 q 769 485 758 521 q 773 474 771 482 q 775 464 775 465 l 775 317 q 773 308 775 317 q 769 290 771 300 q 763 269 767 279 q 758 251 760 258 q 720 156 744 201 q 661 74 696 110 q 581 17 626 39 q 479 -4 535 -4 q 419 4 449 -4 q 363 24 390 13 q 338 40 347 29 q 313 51 329 51 m 661 372 q 655 459 661 422 q 622 539 649 496 q 610 559 618 547 q 590 583 601 571 q 567 602 579 594 q 542 610 554 610 l 438 610 q 395 588 417 610 q 355 538 374 567 q 324 478 336 508 q 313 431 313 447 l 313 283 q 317 273 313 282 q 326 251 321 264 q 335 229 332 238 q 347 208 338 222 q 367 177 356 193 q 391 149 379 161 q 411 138 403 138 l 547 138 q 557 147 549 139 q 577 167 565 154 q 596 186 589 179 q 649 272 636 228 q 661 372 661 315 "},"c":{"ha":613,"x_min":13,"x_max":597,"o":"m 13 361 q 31 501 13 429 q 88 630 50 572 q 184 724 126 688 q 319 761 242 761 q 338 761 326 761 q 351 760 350 761 q 373 756 357 760 q 406 749 389 753 q 439 740 424 744 q 460 733 454 735 q 506 693 482 714 q 551 648 531 672 q 583 595 571 624 q 596 535 596 567 q 590 492 596 514 q 572 454 583 471 q 542 427 560 438 q 501 417 525 417 q 429 447 458 417 q 400 519 400 478 q 406 552 400 538 q 411 586 411 567 l 411 608 q 400 619 410 610 q 383 629 390 629 l 292 629 q 277 626 289 629 q 258 619 265 622 q 197 578 221 603 q 158 524 172 554 q 139 457 144 493 q 133 382 133 421 q 140 305 133 347 q 167 233 147 263 q 181 219 171 229 q 201 197 190 208 q 223 176 213 186 q 238 163 233 167 q 251 152 242 158 q 264 146 261 146 l 383 146 q 422 158 406 146 q 452 187 439 169 q 476 225 465 204 q 497 263 486 246 q 521 292 508 281 q 550 304 533 304 q 586 285 575 304 q 597 243 597 267 q 573 151 597 194 q 510 76 549 108 q 425 24 472 43 q 332 4 378 4 q 206 36 264 4 q 104 119 147 68 q 37 233 61 169 q 13 361 13 297 "},"d":{"ha":781,"x_min":14,"x_max":765,"o":"m 289 750 q 349 744 318 750 q 406 722 379 739 q 429 702 421 711 q 457 693 438 693 q 462 694 458 693 q 465 694 465 694 l 476 728 l 476 857 q 451 878 476 875 q 394 884 425 881 q 338 901 364 888 q 313 956 313 915 q 325 987 313 975 q 357 999 338 999 l 525 999 q 547 992 536 999 q 567 974 558 985 q 582 951 576 964 q 588 928 588 939 l 588 499 l 599 472 l 599 157 l 613 146 q 652 148 626 146 q 703 147 678 150 q 747 132 728 143 q 765 96 765 121 q 752 51 765 68 q 718 26 739 35 q 673 16 697 18 q 628 14 649 14 q 547 24 581 14 q 482 69 513 33 q 478 70 481 69 q 474 71 475 71 q 463 69 467 71 q 458 64 460 67 q 451 57 456 61 q 438 47 447 53 q 380 17 406 29 q 319 4 354 4 q 223 22 268 4 q 141 70 178 40 q 76 140 104 100 q 31 226 47 181 q 28 235 31 228 q 22 252 25 243 q 16 270 18 261 q 14 282 14 279 l 14 450 q 21 476 14 460 q 31 499 28 492 q 37 517 32 503 q 47 550 42 532 q 56 583 51 568 q 63 603 61 599 q 66 608 64 604 q 68 613 68 613 l 182 728 q 203 740 190 736 q 232 747 217 744 q 262 749 247 749 q 289 750 276 750 m 133 388 q 143 301 133 346 q 174 218 153 256 q 231 157 196 181 q 317 133 267 133 q 387 159 357 133 q 437 222 417 185 q 467 301 457 258 q 476 376 476 343 q 466 461 476 417 q 433 543 456 506 q 376 606 411 581 q 294 631 342 631 q 217 606 249 631 q 167 544 186 581 q 141 465 149 508 q 133 388 133 422 "},"e":{"ha":639,"x_min":14,"x_max":624,"o":"m 14 342 q 22 442 14 390 q 47 540 29 493 q 95 626 65 586 q 171 690 125 665 q 186 699 175 693 q 210 710 197 704 q 233 722 222 717 q 247 728 243 726 q 278 734 263 735 q 310 733 294 733 q 460 691 399 733 q 574 582 521 649 q 588 551 579 574 q 605 501 597 528 q 618 448 613 474 q 624 410 624 422 q 623 398 624 407 q 622 386 622 389 q 589 358 610 365 q 546 347 568 351 q 491 348 531 347 q 407 349 451 349 q 324 348 364 349 q 269 347 285 347 q 233 347 254 347 q 190 345 211 346 q 154 343 169 344 q 139 342 139 342 l 133 338 q 133 328 133 336 q 132 317 132 319 q 147 240 132 276 q 187 177 161 204 q 247 134 213 150 q 324 118 282 118 q 342 119 328 118 q 361 119 357 119 q 406 141 381 135 q 449 163 431 147 q 474 193 463 175 q 499 228 486 211 q 528 256 513 244 q 565 267 543 267 q 599 254 586 267 q 613 222 613 242 q 599 165 613 190 q 568 114 585 139 q 458 26 526 53 q 318 0 390 0 q 190 28 247 0 q 94 103 133 56 q 35 212 56 150 q 14 342 14 274 m 144 469 q 144 461 144 467 q 150 457 144 457 l 471 457 q 478 460 474 457 q 486 467 483 464 q 488 476 488 469 q 488 486 488 483 q 471 542 488 519 q 429 578 454 565 q 374 598 404 592 q 318 604 344 604 q 258 597 289 604 q 203 572 228 589 q 161 530 178 556 q 144 469 144 504 "},"f":{"ha":738,"x_min":14,"x_max":721,"o":"m 14 67 q 33 124 14 101 q 88 146 51 146 q 112 143 100 146 q 136 140 124 140 l 150 140 q 165 142 156 140 q 182 146 174 144 q 197 149 190 147 q 204 151 204 151 l 210 157 l 210 603 q 200 619 210 613 q 182 625 190 625 q 147 616 164 625 q 110 607 131 607 q 63 619 79 607 q 25 657 46 632 q 24 669 25 660 q 24 682 24 679 q 43 728 24 714 q 90 748 63 743 q 147 751 117 753 q 199 750 178 750 l 210 760 q 228 831 219 801 q 250 885 236 861 q 286 929 264 908 q 346 972 308 950 q 353 978 347 974 q 363 983 360 982 q 407 998 382 994 q 449 1006 432 1001 l 451 1006 q 540 995 493 1006 q 628 962 588 985 q 694 903 668 939 q 721 818 721 868 q 715 773 721 794 q 696 733 708 751 q 665 705 683 715 q 621 694 646 694 q 569 713 588 694 q 543 756 551 731 q 534 811 535 782 q 536 864 533 840 q 503 883 517 879 q 469 886 490 886 q 419 877 444 886 q 376 853 394 868 q 345 815 357 838 q 333 765 333 792 q 334 754 333 763 q 335 744 335 746 l 340 739 q 348 738 340 739 q 366 735 356 736 q 388 734 376 735 q 406 733 399 733 q 446 731 425 732 q 483 725 467 731 q 510 706 500 719 q 521 667 521 693 q 494 615 521 632 q 436 597 468 597 q 400 600 417 597 q 364 603 383 603 l 340 603 l 335 597 l 335 146 l 465 146 q 490 138 479 146 q 507 117 500 129 q 517 92 514 106 q 521 67 521 78 q 510 28 521 47 q 476 10 500 10 l 63 10 q 26 28 39 10 q 14 67 14 47 "},"g":{"ha":758,"x_min":14,"x_max":743,"o":"m 14 -64 q 26 1 14 -25 q 63 54 39 28 l 64 61 q 58 89 64 75 q 47 117 53 103 q 35 145 40 131 q 29 175 29 160 q 51 258 29 222 q 106 325 72 293 q 107 333 107 328 q 107 342 107 339 q 98 403 107 374 q 89 464 89 432 q 134 617 89 551 q 258 717 179 682 q 270 721 263 718 q 286 726 278 724 q 303 731 294 729 q 315 733 311 733 q 351 727 333 733 q 387 714 369 721 q 422 701 404 707 q 460 694 440 694 l 486 694 q 582 733 528 733 q 639 724 610 733 q 691 698 668 715 q 728 656 714 681 q 743 600 743 631 q 726 530 743 561 q 667 499 710 499 q 618 513 636 499 q 589 544 600 526 q 570 575 578 561 q 554 589 563 589 q 564 523 554 554 q 574 457 574 492 q 566 383 574 419 q 542 316 558 347 q 499 260 525 285 q 438 222 474 236 q 414 212 424 217 q 395 203 404 207 q 376 197 386 199 q 349 194 365 194 q 307 201 326 194 q 269 214 288 207 q 231 227 250 221 q 189 233 211 233 q 153 216 163 233 q 144 176 144 199 l 144 157 q 154 146 147 151 q 168 140 161 140 q 263 154 217 140 q 357 168 308 168 l 406 168 q 420 165 408 168 q 446 160 432 163 q 472 154 460 157 q 486 151 483 151 q 535 149 504 149 q 590 140 567 149 q 605 133 600 136 q 613 128 610 131 q 619 121 615 125 q 633 108 624 117 q 671 75 654 90 q 700 42 688 60 q 719 4 713 25 q 726 -43 726 -17 q 697 -155 726 -110 q 621 -227 668 -200 q 516 -266 574 -254 q 403 -278 458 -278 q 285 -272 340 -278 q 171 -246 229 -267 q 152 -234 160 -242 q 133 -224 144 -226 q 45 -166 76 -204 q 14 -64 14 -128 m 133 -71 q 215 -129 169 -111 q 314 -147 260 -147 q 405 -146 358 -147 q 492 -142 451 -144 q 528 -131 507 -137 q 569 -112 550 -124 q 603 -86 589 -101 q 617 -50 617 -71 q 581 3 617 -17 q 499 33 546 22 q 408 46 453 43 q 343 49 363 49 q 281 47 317 49 q 212 35 244 44 q 156 6 179 25 q 133 -47 133 -12 l 133 -71 m 188 458 q 198 401 188 429 q 227 352 208 374 q 272 317 246 331 q 326 303 297 303 q 384 315 358 303 q 428 349 410 328 q 456 397 446 369 q 465 456 465 425 q 433 560 465 518 q 338 603 401 603 q 281 592 308 603 q 233 561 254 581 q 200 515 213 542 q 188 458 188 489 "},"h":{"ha":840,"x_min":14,"x_max":824,"o":"m 14 68 q 22 112 14 92 q 58 132 31 132 q 87 126 75 132 q 115 119 99 119 q 126 120 119 119 q 133 121 133 121 q 149 132 139 124 q 158 143 158 140 l 158 447 l 167 474 l 167 653 q 163 667 165 656 q 161 681 161 678 q 160 708 161 689 q 158 751 158 728 q 156 794 157 774 q 156 822 156 814 q 147 835 153 828 q 133 843 142 843 l 57 843 q 42 852 49 843 q 31 874 36 861 q 22 899 25 886 q 19 917 19 911 q 33 956 19 943 q 67 974 47 969 q 108 978 86 978 q 150 979 132 978 q 163 982 153 979 q 176 985 174 985 l 185 985 q 249 963 219 985 q 278 903 278 942 l 278 601 q 287 600 281 601 q 296 599 293 599 q 315 618 307 601 q 329 643 322 635 q 413 710 365 685 q 517 735 461 735 q 595 719 560 735 q 654 677 631 704 q 691 613 678 650 q 704 533 704 576 l 704 158 l 721 143 q 758 139 739 142 q 791 128 776 136 q 815 106 806 119 q 824 69 824 92 q 796 17 824 33 q 735 1 768 1 q 713 4 724 1 q 690 7 701 7 q 642 3 665 7 q 593 0 618 0 q 565 1 586 0 q 536 1 543 1 q 510 7 524 4 q 484 16 496 10 q 465 32 472 22 q 458 58 458 42 q 466 97 458 86 q 497 126 474 107 q 517 136 507 133 q 539 140 528 139 q 560 144 550 142 q 579 153 571 146 q 581 192 579 164 q 583 253 582 221 q 584 315 583 286 q 585 354 585 343 l 585 443 q 587 495 585 467 q 584 548 589 524 q 565 589 579 572 q 517 606 550 606 q 435 583 472 606 q 371 525 399 560 q 323 449 343 490 q 292 371 303 408 q 290 364 292 369 q 288 352 289 358 q 287 340 288 346 q 286 333 286 335 q 283 319 285 331 q 281 306 281 308 l 281 169 q 299 145 281 150 q 340 135 318 140 q 381 117 363 131 q 400 64 400 103 l 400 39 q 356 6 381 13 q 300 0 331 0 q 252 3 275 0 q 206 7 229 7 q 153 -1 178 7 q 100 -10 128 -10 q 41 13 68 -10 q 14 68 14 35 "},"i":{"ha":601,"x_min":14,"x_max":586,"o":"m 14 67 q 30 122 14 94 q 79 149 46 149 l 232 149 l 242 163 q 242 182 242 168 q 244 211 243 196 q 247 240 246 226 q 247 260 247 254 q 250 274 249 263 q 253 288 251 285 l 253 594 l 90 594 q 66 602 76 594 q 49 621 56 610 q 38 645 42 632 q 35 669 35 658 q 46 704 35 692 q 73 723 57 717 q 108 731 89 729 q 142 733 126 733 q 188 731 165 733 q 235 728 211 728 q 267 731 251 728 q 300 733 283 733 q 349 718 324 733 q 375 674 375 703 l 375 157 l 383 149 l 531 149 q 553 140 543 149 q 572 118 564 131 q 583 92 579 106 q 586 68 586 78 q 576 29 586 49 q 542 10 565 10 l 68 10 q 28 26 43 10 q 14 67 14 43 m 199 904 q 225 972 199 944 q 293 1000 251 1000 q 334 990 315 1000 q 366 962 353 979 q 387 924 379 944 q 394 882 394 903 q 364 816 394 840 q 294 792 333 792 q 223 825 247 792 q 199 904 199 858 "},"j":{"ha":542,"x_min":14,"x_max":526,"o":"m 14 -14 q 30 56 14 19 q 63 119 46 93 q 90 143 75 139 q 125 147 106 147 q 190 117 165 147 q 215 46 215 86 q 206 3 215 22 q 185 -30 197 -15 q 165 -56 174 -44 q 156 -74 156 -67 q 160 -90 156 -81 q 173 -109 165 -100 q 189 -124 181 -118 q 204 -131 197 -131 l 286 -131 l 303 -125 q 308 -122 304 -124 q 313 -119 313 -121 l 372 -60 q 376 -56 374 -60 q 378 -49 378 -51 q 384 -33 381 -46 q 389 -17 388 -21 q 390 9 389 -10 q 392 49 392 28 q 394 88 393 69 q 394 114 394 107 l 394 207 q 397 220 394 210 q 403 233 400 231 l 403 511 q 411 541 410 526 q 413 571 413 556 q 412 583 413 575 q 411 593 411 592 l 400 603 q 392 604 400 604 q 378 604 383 604 q 333 601 354 604 q 289 597 313 597 q 249 602 269 597 q 210 617 228 607 q 182 642 193 626 q 171 682 171 658 q 193 719 171 704 q 238 733 215 733 l 471 733 q 505 719 490 733 q 519 685 519 704 l 519 157 q 512 115 513 135 q 508 71 511 94 q 485 -64 500 4 q 433 -190 469 -132 q 399 -220 424 -206 q 344 -247 374 -235 q 288 -265 315 -258 q 244 -272 260 -272 q 181 -262 214 -272 q 119 -233 149 -251 q 65 -190 89 -215 q 31 -136 42 -165 q 17 -76 19 -110 q 14 -14 14 -42 m 344 911 q 364 971 344 949 q 411 1017 383 993 q 421 1022 417 1022 q 433 1022 426 1022 q 468 1011 451 1022 q 498 983 485 1000 q 519 946 511 965 q 526 910 526 926 q 519 871 526 890 q 499 837 513 851 q 469 813 486 822 q 431 804 451 804 q 392 814 408 804 q 366 839 376 824 q 350 873 356 854 q 344 911 344 892 "},"k":{"ha":825,"x_min":14,"x_max":810,"o":"m 14 68 q 17 86 14 74 q 25 111 19 99 q 38 133 31 124 q 51 142 44 142 l 144 142 l 161 147 q 169 151 164 149 q 175 153 175 153 l 175 349 l 182 375 l 182 828 q 175 849 182 838 q 161 865 168 860 q 117 865 140 865 q 76 869 94 865 q 47 886 58 874 q 35 925 35 899 q 64 978 35 960 q 125 996 93 996 l 133 996 q 150 993 136 996 q 167 990 164 990 l 169 990 l 172 990 q 188 993 175 990 q 204 996 201 996 l 207 996 q 266 977 239 996 q 297 925 293 958 q 299 850 294 881 q 303 781 303 819 q 302 761 303 769 q 297 740 301 753 l 297 431 q 301 424 297 425 q 308 424 306 424 q 310 424 308 424 q 314 425 313 425 q 343 453 322 433 q 388 497 364 474 q 431 542 411 521 q 460 571 451 563 q 471 585 463 574 q 482 599 479 596 q 449 631 467 614 q 432 672 432 649 q 447 706 432 694 q 482 724 463 718 q 496 724 486 724 q 517 724 506 724 q 539 725 529 725 q 553 725 549 725 q 610 726 574 725 q 683 720 647 726 q 744 698 718 714 q 771 647 771 682 q 762 613 771 624 q 739 599 753 603 q 707 594 725 594 q 672 593 690 594 q 633 579 651 592 q 596 550 614 567 q 563 517 578 533 q 536 490 549 500 q 515 475 526 482 q 493 461 503 468 q 477 444 483 454 q 471 418 471 435 q 492 361 471 389 q 531 310 513 333 q 540 298 532 307 q 558 278 549 289 q 576 257 568 267 q 585 244 583 247 q 612 196 601 221 q 646 153 622 171 q 699 152 674 153 q 747 145 725 151 q 784 124 768 139 q 808 76 800 108 q 809 67 808 75 q 810 57 810 60 q 802 32 810 42 q 783 16 794 22 q 758 6 772 10 q 732 0 744 3 l 647 0 l 564 0 q 529 4 553 0 q 493 11 506 8 q 471 21 482 14 q 449 28 460 28 q 409 14 429 28 q 365 0 389 0 q 327 3 346 0 q 289 6 308 6 q 224 3 256 6 q 158 0 192 0 l 96 0 q 40 19 65 6 q 14 68 14 32 m 379 338 q 351 326 364 338 q 329 304 339 315 q 317 290 325 300 q 303 274 308 281 q 297 267 299 268 l 297 153 q 314 136 297 143 q 351 124 331 129 q 392 115 372 118 q 417 108 411 111 q 428 100 419 107 q 439 93 436 93 q 442 92 439 92 q 447 92 444 92 q 481 108 463 92 q 499 142 499 125 q 482 183 499 151 q 444 249 465 215 q 404 310 424 283 q 379 338 385 338 "},"l":{"ha":688,"x_min":13,"x_max":672,"o":"m 13 65 q 15 91 13 76 q 25 118 18 106 q 42 140 32 131 q 68 149 53 149 l 281 149 l 288 157 l 288 575 l 296 601 l 296 835 q 279 852 296 843 q 258 863 263 861 q 244 858 254 861 q 221 853 233 856 q 197 848 208 850 q 182 846 186 846 l 160 846 q 123 851 136 846 q 90 863 110 856 q 65 869 76 867 q 47 878 54 872 q 35 892 39 883 q 31 919 31 901 q 60 973 31 958 q 125 988 90 988 q 174 982 150 988 q 224 976 199 976 q 261 979 243 976 q 299 982 279 982 q 338 978 317 982 q 376 965 358 974 q 406 940 394 956 q 418 900 418 924 l 418 161 l 432 149 l 617 149 q 641 141 631 149 q 658 122 651 133 q 669 98 665 111 q 672 74 672 85 q 659 29 672 49 q 617 10 646 10 l 79 10 q 34 26 56 10 q 13 65 13 42 "},"m":{"ha":846,"x_min":14,"x_max":829,"o":"m 568 18 q 551 12 558 18 q 536 -1 543 6 q 522 -15 529 -8 q 503 -21 514 -21 l 422 -21 q 394 -13 411 -21 q 360 3 378 -6 q 326 20 342 13 q 304 28 311 28 l 301 28 q 285 14 294 22 q 266 -2 276 6 q 244 -15 256 -10 q 221 -21 232 -21 l 107 -21 q 75 -15 92 -21 q 45 2 58 -8 q 23 27 32 13 q 14 57 14 42 q 26 93 14 82 q 53 110 39 104 q 81 119 68 115 q 96 132 94 122 l 107 207 l 107 572 q 94 582 107 579 q 66 590 82 585 q 38 608 50 596 q 25 647 25 621 q 51 701 25 689 q 114 714 78 714 q 147 713 129 714 q 176 701 165 713 q 185 692 179 699 q 197 677 190 685 q 210 662 204 669 q 221 653 217 654 l 224 653 l 226 653 q 250 676 236 663 q 281 701 264 690 q 315 721 297 713 q 349 729 333 729 q 397 719 378 729 q 431 694 417 708 q 460 663 446 679 q 492 632 474 646 q 527 665 513 649 q 557 694 542 682 q 592 715 572 707 q 647 724 613 724 q 692 714 672 724 q 728 688 713 704 q 754 652 743 672 q 775 610 765 632 q 778 599 776 607 q 781 588 781 590 l 781 278 q 774 231 774 258 q 775 189 775 204 l 775 126 q 790 105 781 113 q 808 90 799 97 q 823 73 817 82 q 829 47 829 64 q 813 -1 829 24 q 769 -26 796 -26 q 693 -16 729 -26 q 617 1 657 -6 q 592 10 604 3 q 568 18 581 18 m 340 593 q 295 555 317 579 q 257 501 274 531 q 231 441 240 472 q 221 382 221 410 l 221 121 q 225 115 221 119 q 232 110 229 111 q 248 104 235 108 q 264 99 261 100 q 281 83 268 96 q 297 67 294 71 l 301 67 q 320 83 306 72 q 350 106 335 93 q 377 129 365 118 q 389 147 389 140 l 389 576 q 376 592 389 590 q 357 594 364 594 q 349 594 354 594 q 340 593 343 593 m 492 210 q 493 165 492 183 q 501 131 494 146 q 523 106 508 117 q 563 88 538 96 l 568 88 l 574 88 l 596 99 q 613 102 601 100 q 635 108 624 104 q 653 117 646 111 q 661 136 661 124 l 661 576 q 648 592 661 590 q 628 594 635 594 q 601 586 613 594 q 579 567 590 578 q 571 551 576 563 q 558 526 565 539 q 545 501 551 513 q 536 485 539 489 q 530 476 535 483 q 525 468 525 469 q 497 340 503 406 q 492 210 492 275 "},"n":{"ha":786,"x_min":14,"x_max":769,"o":"m 14 79 q 42 138 14 126 q 111 153 69 150 l 117 158 q 122 203 119 178 q 128 250 124 229 l 128 571 q 110 585 128 581 q 73 599 93 590 q 35 623 53 607 q 18 672 18 639 q 44 722 18 708 q 100 735 69 735 q 113 735 104 735 q 122 733 122 735 q 187 719 163 728 q 225 697 211 711 q 244 658 239 682 q 253 599 250 635 q 256 597 254 597 q 258 597 258 597 q 274 606 267 597 q 290 625 282 614 q 307 647 299 636 q 324 664 315 658 q 406 719 363 692 q 500 746 450 746 q 562 731 531 746 q 617 693 593 717 q 657 639 642 669 q 672 576 672 608 l 672 233 q 666 206 667 218 q 665 178 665 193 q 666 166 665 174 q 667 158 667 158 l 672 153 q 740 128 710 146 q 769 65 769 110 q 748 17 769 29 q 693 6 726 6 l 672 6 q 633 6 661 6 q 574 8 606 7 q 515 10 543 8 q 476 11 488 11 q 432 68 432 24 q 462 135 432 121 q 536 153 492 150 l 542 158 l 554 213 l 554 424 q 559 440 556 428 q 563 457 563 453 l 563 460 l 563 463 q 560 478 563 465 q 557 494 558 492 q 556 510 557 499 q 555 533 556 521 q 553 556 554 544 q 553 571 553 567 q 521 595 540 592 q 481 599 501 599 q 416 582 446 599 q 361 540 386 565 q 316 485 336 515 q 281 429 296 456 q 275 422 279 428 q 269 413 271 415 q 258 393 265 406 q 250 381 250 381 l 250 222 q 242 199 243 208 q 242 174 242 189 l 242 153 q 269 138 250 140 q 308 131 288 136 q 342 111 328 125 q 357 61 357 97 q 335 17 357 32 q 286 0 314 3 l 229 0 l 172 0 q 158 3 169 0 q 144 6 147 6 q 97 9 121 8 q 55 15 74 10 q 25 35 36 21 q 14 79 14 49 "},"o":{"ha":678,"x_min":14,"x_max":663,"o":"m 14 351 q 33 503 14 429 q 92 633 51 576 q 195 724 132 690 q 346 758 258 758 q 461 733 413 758 q 558 665 510 707 q 561 662 560 664 q 564 660 563 660 q 598 597 581 628 q 630 533 615 565 q 653 466 644 500 q 663 396 663 432 q 662 380 663 392 q 661 365 661 368 q 653 335 658 357 q 642 290 649 314 q 631 243 636 265 q 624 213 625 221 q 585 133 613 175 q 522 58 558 92 q 444 1 486 24 q 360 -21 401 -21 q 328 -18 339 -21 q 309 -11 317 -15 q 293 -2 301 -7 q 269 7 285 3 q 243 11 263 8 q 215 17 224 14 q 197 26 208 19 q 173 38 185 32 q 151 49 161 44 q 139 56 140 54 q 88 111 111 74 q 49 192 65 149 q 23 278 32 235 q 14 351 14 321 m 133 350 q 135 319 133 339 q 142 281 138 300 q 152 244 146 261 q 167 218 158 226 l 232 153 q 240 151 232 153 q 256 147 247 149 q 275 144 265 146 q 292 143 285 143 q 311 142 293 142 q 340 142 331 142 q 388 142 368 142 q 433 153 408 143 q 513 258 493 201 q 532 388 532 314 q 523 467 532 431 q 499 544 514 504 q 476 574 492 563 q 441 595 460 586 q 402 611 422 604 q 368 626 382 618 l 281 626 q 263 616 279 626 q 238 600 246 606 q 184 549 204 576 q 152 490 164 521 q 137 424 140 458 q 133 350 133 389 "},"p":{"ha":792,"x_min":14,"x_max":776,"o":"m 14 -178 q 16 -157 14 -168 q 24 -135 18 -146 q 37 -118 29 -125 q 57 -111 44 -111 l 167 -111 l 176 -97 q 183 5 178 -44 q 189 106 189 54 q 185 142 189 125 q 182 176 182 158 l 182 185 q 185 201 183 188 q 188 218 188 215 l 188 221 q 185 245 188 233 q 182 269 182 257 q 185 313 182 292 q 189 357 189 333 q 185 411 189 385 q 182 465 182 438 q 185 514 182 490 q 189 563 189 538 q 188 581 189 567 q 188 599 188 594 q 145 624 172 619 q 91 633 118 629 q 44 644 64 636 q 24 681 24 653 q 33 714 24 701 q 56 733 42 726 q 86 743 69 740 q 119 746 103 746 q 174 745 146 746 q 226 738 201 744 q 272 717 251 732 q 301 675 292 703 q 304 674 303 674 q 307 674 307 674 q 333 687 317 674 q 357 707 349 700 q 364 715 358 708 q 376 727 369 721 q 388 739 382 733 q 394 744 393 744 q 403 747 396 746 q 418 748 410 747 q 434 749 426 749 q 443 750 442 750 q 457 753 446 751 q 471 756 468 756 q 485 756 472 756 q 506 757 499 757 q 622 722 571 757 q 706 635 672 688 q 758 519 740 582 q 776 400 776 456 q 769 291 776 342 q 742 197 761 240 q 691 115 724 153 q 607 43 658 76 q 580 27 592 33 q 557 17 568 21 q 532 13 546 14 q 500 11 518 11 q 468 10 481 11 q 438 17 456 10 q 409 33 424 22 q 380 54 394 43 q 350 74 365 65 q 321 82 335 82 q 308 78 314 82 q 301 65 301 74 l 301 -97 l 313 -111 l 411 -111 q 432 -119 424 -111 q 445 -137 440 -126 q 452 -160 450 -149 q 454 -182 454 -172 q 435 -229 454 -208 q 389 -250 417 -250 l 111 -250 q 79 -245 96 -250 q 48 -231 63 -240 q 24 -208 33 -221 q 14 -178 14 -194 m 313 321 q 335 253 321 286 q 373 196 350 221 q 426 156 396 171 q 496 140 456 140 q 555 156 526 140 q 605 195 583 171 q 640 250 626 219 q 656 310 653 281 l 656 369 q 653 435 656 407 q 644 489 651 464 q 624 538 638 514 q 585 593 610 563 q 562 620 576 604 q 531 636 547 636 l 432 636 q 424 628 432 636 q 405 610 415 621 q 384 589 394 600 q 367 571 374 578 q 321 484 329 529 q 313 383 313 439 l 313 321 "},"q":{"ha":786,"x_min":14,"x_max":769,"o":"m 324 -186 q 338 -138 324 -154 q 373 -116 351 -122 q 421 -109 394 -110 q 471 -108 447 -108 q 483 -90 478 -103 q 488 -71 488 -78 l 488 64 q 462 58 472 64 q 443 46 451 53 q 426 31 435 39 q 406 17 418 22 q 358 2 382 6 q 310 -1 335 -1 q 190 31 244 -1 q 97 113 136 63 q 35 226 57 164 q 14 347 14 288 q 26 465 14 406 q 63 578 38 525 q 128 673 88 631 q 226 739 168 715 q 242 745 232 742 q 263 752 251 749 q 285 758 274 756 q 304 761 296 761 q 351 753 329 761 q 394 734 374 746 q 433 708 414 722 q 471 679 451 693 q 488 674 481 674 q 501 684 496 674 q 512 707 506 694 q 529 730 518 719 q 563 740 540 740 q 592 731 575 740 q 610 707 610 721 l 610 -97 l 622 -108 q 674 -110 647 -108 q 722 -119 700 -111 q 756 -145 743 -128 q 769 -196 769 -162 q 763 -232 769 -214 q 732 -250 756 -250 l 378 -250 q 336 -231 349 -250 q 324 -186 324 -211 m 133 310 q 154 247 139 278 q 193 189 169 215 q 247 147 217 163 q 310 131 276 131 q 392 158 358 131 q 447 226 426 185 q 478 313 468 267 q 488 399 488 360 q 478 466 488 429 q 450 537 468 503 q 407 598 432 571 q 351 636 382 625 q 335 637 347 636 q 321 638 324 638 q 269 628 290 638 q 229 603 247 618 q 195 566 211 588 q 161 522 179 544 q 135 449 138 490 q 132 372 132 408 q 132 360 132 368 q 133 341 132 351 q 133 322 133 331 q 133 310 133 314 "},"r":{"ha":738,"x_min":14,"x_max":721,"o":"m 24 79 q 45 129 24 111 q 99 147 67 147 q 137 144 118 147 q 176 140 156 140 q 192 141 182 140 q 204 142 203 142 l 210 147 q 210 165 210 153 q 212 192 211 178 q 214 220 213 207 q 215 239 215 233 q 217 253 215 242 q 221 267 219 264 l 218 403 l 218 429 l 210 593 l 199 604 q 175 605 192 604 q 139 606 158 606 q 103 608 119 607 q 79 610 86 610 q 33 631 51 613 q 14 678 14 650 q 31 726 14 706 q 76 746 47 746 q 81 746 78 746 q 85 744 85 746 q 140 744 107 742 q 206 744 172 746 q 268 735 239 743 q 313 707 297 728 q 318 695 315 704 q 324 676 321 686 q 333 660 328 667 q 343 653 338 653 l 346 653 q 438 717 389 688 q 544 746 488 746 q 612 734 579 746 q 668 701 644 722 q 706 651 692 681 q 721 585 721 621 q 697 497 721 533 q 614 461 672 461 q 569 478 586 461 q 543 521 553 496 q 530 573 533 546 q 525 619 526 600 q 517 626 524 626 q 507 626 510 626 q 494 626 500 626 q 482 619 488 625 q 464 603 476 615 q 438 576 451 590 q 411 550 424 563 q 394 533 399 538 q 378 515 389 528 q 358 486 368 501 q 342 456 349 471 q 335 435 335 442 l 335 278 q 338 264 336 275 q 340 250 340 253 q 342 233 340 246 q 344 207 343 221 q 345 181 344 193 q 346 163 346 168 q 363 144 351 147 q 389 142 374 142 q 420 144 404 142 q 451 147 436 147 q 510 130 483 147 q 536 79 536 113 q 524 35 536 51 q 491 12 511 19 q 447 2 471 4 q 403 0 424 0 q 356 3 379 0 q 310 6 333 6 q 291 5 299 6 q 269 0 283 4 l 111 0 q 51 22 78 0 q 24 79 24 44 "},"s":{"ha":607,"x_min":14,"x_max":590,"o":"m 14 69 q 15 92 14 83 q 22 115 15 101 l 22 279 q 38 310 22 299 q 71 322 53 322 q 90 320 79 322 q 107 311 100 318 q 118 284 117 300 q 128 257 119 268 q 163 209 146 232 q 201 169 181 186 q 248 141 222 151 q 307 131 274 131 q 366 137 336 131 q 420 157 396 143 q 460 194 444 171 q 476 250 476 217 q 469 288 476 274 q 438 311 461 301 q 347 331 394 325 q 254 342 300 336 q 166 357 208 347 q 92 389 124 367 q 42 450 61 411 q 24 553 24 489 q 59 669 24 626 q 161 740 94 713 q 194 752 176 747 q 229 757 211 757 l 242 757 q 344 735 292 750 q 438 692 396 721 q 453 708 447 699 q 466 726 460 718 q 481 740 472 735 q 503 746 489 746 q 538 731 522 746 q 553 697 554 717 q 553 667 553 689 q 555 622 554 646 q 557 576 556 597 q 558 546 558 554 l 558 529 q 544 478 558 504 q 500 453 529 453 q 460 475 475 453 q 433 526 446 497 q 404 581 421 554 q 357 615 388 607 q 327 623 338 621 q 307 626 317 625 q 286 628 297 628 q 256 628 275 628 q 231 627 250 628 q 204 626 211 626 q 179 614 192 622 q 156 594 167 606 q 140 568 146 582 q 133 542 133 554 q 149 493 133 510 q 193 469 165 476 q 351 458 271 472 q 503 415 432 444 q 565 338 539 382 q 590 243 590 294 q 568 146 590 190 q 509 69 546 101 q 426 18 472 36 q 329 0 379 0 q 307 1 321 0 q 292 1 293 1 q 280 3 289 1 q 260 8 271 6 q 240 14 250 11 q 226 18 231 17 q 182 45 201 25 q 139 78 163 65 q 127 60 131 74 q 119 33 124 47 q 102 7 114 18 q 65 -4 90 -4 q 24 20 35 -4 q 14 69 14 44 "},"t":{"ha":683,"x_min":14,"x_max":667,"o":"m 221 283 q 218 385 221 332 q 232 483 215 438 l 232 638 l 57 638 q 26 657 38 638 q 14 693 14 676 q 30 735 14 718 q 63 767 46 751 q 102 782 79 781 q 149 783 125 783 q 195 788 174 783 q 232 815 217 793 q 246 871 246 836 q 248 940 246 906 q 263 998 250 974 q 315 1022 275 1022 q 365 998 356 1022 q 374 940 374 974 q 370 878 374 908 q 367 814 367 847 q 367 789 367 806 q 368 771 367 772 l 378 761 q 397 760 379 760 q 428 760 417 760 q 484 763 457 760 q 539 767 511 767 q 592 742 571 767 q 613 688 613 717 q 595 640 613 660 q 550 619 578 619 q 485 628 515 619 q 415 638 456 638 q 391 637 407 638 q 374 635 375 636 l 357 619 l 357 233 q 365 208 357 222 q 384 182 372 194 q 410 160 396 169 q 436 151 424 151 q 489 167 469 151 q 519 207 508 183 q 535 258 529 231 q 549 308 542 285 q 568 348 556 332 q 604 364 581 364 q 653 339 639 364 q 667 285 667 314 q 653 189 667 238 q 612 101 639 140 q 544 35 585 61 q 451 10 504 10 q 419 11 431 10 q 399 16 408 13 q 381 26 390 19 q 357 43 372 32 q 349 47 356 43 q 335 53 342 50 q 321 60 328 57 q 313 64 314 63 q 238 161 256 108 q 221 283 221 214 "},"u":{"ha":819,"x_min":14,"x_max":804,"o":"m 106 286 q 115 413 106 350 q 124 539 124 475 q 124 551 124 543 q 123 572 124 561 q 122 590 122 582 q 122 604 122 600 q 88 617 107 614 q 53 626 69 621 q 25 642 36 631 q 14 678 14 653 q 28 718 14 701 q 68 735 43 735 l 182 735 q 215 726 203 735 q 233 702 226 717 q 241 671 239 688 q 243 640 243 654 q 240 583 243 611 q 236 526 236 556 q 237 497 236 517 q 238 474 238 476 q 239 424 238 460 q 242 349 240 389 q 245 273 243 308 q 247 224 247 238 q 270 164 253 188 q 328 140 288 140 q 365 143 344 140 q 400 158 386 146 q 451 209 425 181 q 499 269 478 238 q 533 337 519 301 q 547 408 547 372 l 547 610 q 528 617 547 615 q 487 625 510 619 q 445 644 464 631 q 426 683 426 657 q 441 721 426 707 q 482 735 456 735 l 607 735 q 643 719 632 735 q 658 681 654 703 q 663 636 663 660 q 667 599 663 613 l 664 451 l 664 425 l 661 164 l 672 153 q 716 151 693 153 q 759 142 739 150 q 792 120 779 135 q 804 78 804 106 q 794 39 804 53 q 769 19 785 25 q 733 11 753 13 q 694 10 714 10 q 659 11 683 10 q 610 19 635 13 q 566 38 585 25 q 547 71 547 50 l 547 131 l 542 131 q 495 83 518 106 q 447 41 472 60 q 391 11 421 22 q 326 0 361 0 q 228 26 269 0 q 159 94 186 53 q 119 185 132 135 q 106 286 106 236 "},"v":{"ha":829,"x_min":14,"x_max":814,"o":"m 133 604 q 68 613 100 607 q 14 647 36 618 l 14 672 q 24 709 14 694 q 49 732 33 724 q 85 743 65 740 q 125 746 104 746 l 139 746 q 153 743 142 746 q 176 738 164 740 q 201 732 189 735 q 215 729 213 729 l 218 729 q 256 732 238 729 q 294 735 275 735 q 326 733 310 735 q 357 726 343 732 q 380 708 371 719 q 389 675 389 696 q 370 640 389 649 q 328 626 351 631 q 287 617 306 622 q 268 596 268 613 q 276 551 268 576 q 295 499 285 525 q 317 447 306 472 q 335 403 328 421 q 354 335 346 367 q 378 268 363 303 q 388 247 382 260 q 399 222 393 235 q 410 201 406 210 q 415 192 415 192 l 421 186 q 438 217 425 189 q 467 288 451 246 q 501 381 483 331 q 535 475 519 431 q 560 551 550 519 q 569 590 569 583 q 569 600 569 593 q 568 610 568 607 q 540 629 558 625 q 503 637 521 633 q 472 649 485 640 q 458 681 458 657 q 483 726 458 713 q 536 740 507 740 l 551 740 q 584 740 561 740 q 633 738 607 739 q 683 735 660 736 q 715 735 706 735 q 751 727 733 731 q 782 717 768 724 q 805 697 796 710 q 814 664 814 685 q 801 633 814 643 q 769 619 788 624 q 731 615 751 615 q 699 615 711 615 q 684 596 690 610 q 672 565 678 582 q 661 533 667 549 q 650 507 656 517 q 574 273 614 389 q 497 39 533 157 q 471 5 493 19 q 429 -10 449 -10 q 386 0 410 -10 q 351 28 363 10 q 313 118 328 67 q 286 207 299 169 q 280 224 285 211 q 270 250 275 236 q 260 276 265 264 q 253 294 254 289 q 249 303 253 296 q 242 319 246 311 q 235 335 239 328 q 231 343 232 342 q 224 363 229 347 q 215 395 219 378 q 205 428 210 413 q 199 447 200 443 q 172 524 185 486 q 139 599 158 563 q 133 604 139 604 "},"w":{"ha":840,"x_min":13,"x_max":824,"o":"m 210 36 q 172 163 185 100 q 144 292 160 226 q 106 447 126 365 q 63 601 86 528 q 53 610 60 604 q 40 624 47 617 q 27 637 33 631 q 19 646 21 643 q 13 663 13 653 q 14 681 14 672 q 23 717 14 704 q 47 737 32 731 q 81 744 63 743 q 119 744 100 744 q 160 743 138 744 q 202 735 182 742 q 235 714 222 728 q 249 675 249 700 q 238 642 249 653 q 215 626 228 632 q 192 616 203 621 q 182 600 182 611 l 182 592 q 195 538 186 576 q 215 455 204 499 q 234 373 225 411 q 247 319 243 335 q 254 299 250 313 q 258 286 258 286 l 264 286 l 275 308 l 329 558 l 329 624 q 322 633 329 629 q 307 641 315 636 q 292 656 299 646 q 285 686 285 665 q 287 710 285 700 q 307 726 289 721 q 320 731 311 728 q 340 736 329 733 q 359 741 350 739 q 372 743 368 743 q 384 744 374 743 q 400 744 394 744 q 446 743 418 744 q 500 735 474 742 q 545 714 526 728 q 564 674 564 700 q 558 653 564 661 q 543 640 551 646 q 525 628 535 633 q 508 613 515 622 q 508 599 508 610 q 507 586 507 589 q 508 570 507 581 q 508 558 508 560 q 511 547 508 556 q 517 528 514 539 q 522 509 519 518 q 525 499 525 500 q 533 436 531 467 q 542 374 535 406 q 549 333 544 358 q 558 291 554 308 q 563 271 563 274 l 568 265 q 581 276 576 268 q 586 296 585 285 q 588 318 588 307 q 590 336 588 329 q 594 349 590 339 q 601 372 597 360 q 608 394 604 383 q 611 407 611 404 q 621 444 615 421 q 632 490 626 467 q 641 529 638 513 q 644 547 644 546 l 644 618 q 635 631 644 626 q 615 641 626 636 q 594 653 603 646 q 585 675 585 660 q 596 711 585 697 q 624 733 607 725 q 660 742 640 740 q 696 744 679 744 q 736 742 714 744 q 778 733 758 740 q 810 713 797 726 q 824 675 824 699 l 824 657 q 815 648 821 654 q 801 635 808 642 q 788 622 794 628 q 781 613 782 615 q 778 608 779 613 q 775 601 776 604 q 771 590 774 597 q 765 576 768 583 q 760 561 763 568 q 758 553 758 554 q 749 514 756 540 q 733 454 742 488 q 715 385 724 421 q 697 315 706 349 q 682 256 689 282 q 672 217 675 229 q 657 125 669 171 q 628 36 644 79 q 603 13 617 22 q 572 4 590 4 q 544 8 560 4 q 519 21 528 11 q 499 69 508 32 q 481 156 489 107 q 465 260 472 206 q 451 360 458 314 q 437 438 444 407 q 422 472 429 469 q 406 451 411 465 q 400 422 401 438 q 398 390 399 406 q 394 363 397 374 q 366 205 376 285 q 335 47 356 125 q 311 14 328 25 q 272 3 294 3 q 237 11 251 3 q 210 36 222 19 "},"x":{"ha":851,"x_min":14,"x_max":835,"o":"m 79 11 q 14 85 14 19 q 29 123 14 110 q 66 142 44 136 q 110 150 88 149 q 150 153 133 151 q 172 168 158 154 q 201 199 186 182 q 228 232 215 215 q 247 256 242 249 q 253 264 249 257 q 264 279 258 271 q 274 295 269 288 q 281 304 279 303 q 292 319 283 308 q 312 340 301 329 q 332 361 322 351 q 346 375 342 371 q 349 383 347 378 q 351 392 350 389 l 351 394 q 341 419 351 400 q 315 461 331 438 q 279 511 299 485 q 242 560 260 538 q 209 597 224 582 q 188 614 194 613 q 142 615 167 614 q 95 621 117 615 q 60 640 74 626 q 46 682 46 654 l 46 707 q 78 734 60 724 q 119 744 97 744 l 128 744 q 169 743 140 744 q 232 740 199 742 q 294 736 265 738 q 335 733 324 735 q 383 714 361 731 q 406 668 406 697 q 399 643 406 651 q 383 630 392 635 q 368 619 375 625 q 361 604 361 614 q 369 579 361 596 q 389 544 378 563 q 413 513 400 526 q 432 500 425 500 l 438 500 q 451 514 442 504 q 470 535 460 524 q 490 557 481 547 q 503 571 499 567 q 517 585 514 582 q 519 600 519 589 q 510 615 519 610 q 489 627 500 621 q 468 644 478 633 q 458 679 458 656 q 474 713 458 701 q 510 731 489 725 q 554 738 532 736 q 592 739 576 739 l 607 739 q 636 738 617 739 q 674 737 656 738 q 708 735 693 736 q 726 733 724 733 q 769 713 753 732 q 786 668 786 694 q 772 627 786 638 q 740 614 758 617 q 702 610 721 611 q 672 599 683 610 q 589 499 625 551 q 508 397 553 446 l 508 381 l 585 293 q 601 263 588 285 q 633 217 615 240 q 669 174 651 193 q 699 153 688 154 l 803 131 q 826 113 818 128 q 835 83 835 99 q 822 35 835 60 q 781 11 808 11 l 536 11 q 493 31 510 11 q 476 76 476 51 q 484 106 476 97 q 501 121 492 115 q 519 131 511 126 q 531 147 528 136 q 518 176 532 153 q 486 226 504 200 q 451 274 468 253 q 428 294 433 294 q 411 288 418 294 q 388 252 400 268 q 362 219 375 236 q 338 185 349 203 q 318 147 326 168 l 318 144 q 326 131 318 138 q 345 117 335 125 q 365 97 356 108 q 374 68 374 85 q 365 35 374 49 q 342 15 356 22 q 311 3 328 7 q 278 0 294 0 q 179 5 228 0 q 79 11 131 10 "},"y":{"ha":829,"x_min":14,"x_max":813,"o":"m 14 -122 q 43 -32 14 -71 q 125 7 72 7 q 189 -22 168 7 q 210 -90 210 -50 q 204 -116 210 -106 q 199 -140 199 -126 q 199 -147 199 -143 q 204 -151 200 -151 l 242 -151 q 248 -147 242 -151 q 262 -135 254 -142 q 278 -120 269 -128 q 292 -108 286 -112 q 316 -76 304 -94 q 337 -36 328 -57 q 351 6 346 -15 q 357 46 357 28 q 357 63 357 51 q 356 76 357 75 q 353 87 356 78 q 347 106 350 96 q 340 126 344 117 q 335 142 336 136 q 309 206 328 160 q 269 302 290 251 q 230 399 249 353 q 204 463 211 444 q 190 522 201 489 q 156 571 179 556 q 140 572 151 571 q 115 573 128 572 q 90 575 101 574 q 74 576 78 576 q 43 588 57 579 q 29 615 29 596 q 31 646 29 629 q 39 677 33 663 q 56 702 44 692 q 85 713 67 713 l 301 713 q 328 708 314 713 q 356 694 343 703 q 376 674 368 686 q 383 649 383 663 q 369 611 383 624 q 340 592 356 599 q 310 578 324 585 q 296 558 296 571 q 303 517 296 539 q 322 474 311 496 q 343 431 332 451 q 361 392 354 410 q 369 372 364 385 q 379 346 374 360 q 389 320 385 332 q 394 304 393 308 q 398 290 396 301 q 404 268 400 279 q 415 248 408 257 q 429 239 421 239 q 445 251 438 239 q 459 280 453 264 q 469 311 465 296 q 476 332 474 326 q 490 375 481 344 q 509 440 499 406 q 528 506 519 475 q 540 549 538 536 q 542 556 542 551 q 542 563 542 561 q 529 583 542 576 q 502 597 517 589 q 476 617 488 604 q 464 658 464 631 q 478 697 464 682 q 519 713 492 713 l 699 713 q 738 706 718 707 q 775 702 758 706 q 802 688 792 699 q 813 650 813 676 q 802 600 813 617 q 774 577 792 583 q 731 571 756 571 q 676 571 706 571 q 651 542 661 560 q 633 503 640 524 q 620 461 625 482 q 611 424 615 440 q 526 153 574 285 q 426 -114 479 22 q 424 -119 426 -115 q 421 -125 422 -124 q 413 -135 419 -126 q 406 -146 407 -144 q 401 -156 404 -149 q 392 -174 397 -164 q 383 -191 388 -183 q 378 -200 379 -199 q 302 -266 350 -239 q 207 -293 254 -293 q 136 -281 171 -293 q 74 -245 101 -268 q 31 -191 47 -222 q 14 -122 14 -160 "},"z":{"ha":672,"x_min":14,"x_max":656,"o":"m 14 74 q 38 133 14 104 q 92 192 61 163 q 151 251 122 221 q 193 310 181 281 l 372 489 l 383 511 l 449 576 q 449 580 449 576 q 450 586 450 583 q 450 596 450 589 q 443 604 450 603 q 396 611 419 607 q 349 615 372 615 q 270 598 314 615 q 204 554 226 581 q 183 519 192 540 q 166 477 175 497 q 144 442 157 457 q 110 428 131 428 q 71 449 79 428 q 63 494 63 469 l 63 511 l 101 675 q 138 719 108 703 q 196 735 168 735 q 290 728 243 735 q 383 718 336 721 q 422 717 394 718 q 479 715 449 715 q 536 713 510 714 q 574 713 563 713 q 639 675 617 706 q 640 663 640 672 q 640 650 640 653 q 640 626 640 638 q 629 604 639 615 q 611 588 624 600 q 585 563 599 576 q 558 538 571 550 q 542 522 546 526 q 506 482 521 503 q 471 440 490 461 l 433 403 q 369 335 399 371 q 307 267 339 300 q 283 242 297 256 q 256 214 269 229 q 229 183 242 199 q 210 153 217 168 q 211 142 208 150 q 214 131 214 133 l 460 131 q 467 133 461 131 q 479 140 472 136 q 492 147 486 143 q 503 153 499 150 q 529 199 524 167 q 539 264 535 231 q 553 323 543 297 q 596 349 564 349 q 619 341 608 349 q 639 322 631 333 q 651 297 647 310 q 656 272 656 283 l 656 82 q 652 60 656 72 q 642 35 649 47 q 627 16 636 24 q 607 8 618 8 l 340 8 q 307 0 325 0 q 274 0 290 0 q 222 3 246 0 q 169 6 197 6 q 133 3 150 6 q 99 0 117 0 q 38 19 63 0 q 14 74 14 38 "},"ล":{"ha":1239,"x_min":14,"x_max":1222,"o":"m 14 688 q 17 692 15 689 q 19 699 18 696 q 24 712 21 701 q 31 734 26 722 q 38 756 35 746 q 42 768 40 765 q 50 790 43 774 q 65 823 57 806 q 80 856 72 840 q 90 878 88 871 q 101 891 93 881 q 113 904 110 901 q 117 913 113 907 q 122 921 121 919 q 136 935 126 925 q 158 957 146 946 q 179 978 169 968 q 193 992 189 988 q 274 1026 229 1015 q 360 1036 318 1036 q 479 1013 422 1036 q 581 943 536 990 l 586 943 q 603 985 592 971 q 631 1006 614 1000 q 668 1013 647 1013 q 715 1014 689 1014 q 754 1015 732 1014 q 792 1006 776 1015 l 1157 1006 q 1191 989 1176 1006 q 1206 954 1206 972 l 1206 632 q 1189 592 1206 607 q 1149 578 1172 578 q 1108 593 1128 578 q 1089 632 1089 608 l 1089 796 q 1085 802 1089 796 q 1075 816 1081 808 q 1064 832 1069 824 q 1054 844 1058 840 q 1038 863 1047 853 q 1015 872 1028 872 l 749 872 q 746 870 747 872 q 743 867 744 868 q 736 843 740 860 q 732 824 732 826 l 732 611 l 749 594 q 759 594 750 594 q 774 593 768 593 q 848 608 822 593 q 885 646 874 624 q 901 694 897 668 q 908 743 904 721 q 920 781 911 765 q 953 796 929 796 q 985 782 972 796 q 999 747 999 768 l 999 294 q 986 256 999 276 q 953 235 974 235 l 939 235 q 910 263 921 250 q 896 300 899 276 q 894 318 896 306 q 892 344 893 331 q 891 371 892 358 q 890 388 890 383 q 879 409 886 396 q 863 436 872 422 q 843 460 854 450 q 819 469 832 469 l 754 469 q 739 459 746 469 q 732 442 732 449 l 732 175 l 738 158 q 741 152 739 156 q 743 149 743 149 l 1038 149 q 1058 157 1050 149 q 1074 176 1067 165 q 1088 200 1082 188 q 1100 219 1093 213 l 1100 365 q 1118 407 1100 388 q 1157 426 1136 426 q 1191 413 1179 426 q 1209 382 1203 400 q 1217 343 1215 364 q 1218 308 1218 322 q 1215 265 1218 286 q 1211 222 1211 244 q 1217 160 1211 190 q 1222 100 1222 131 q 1193 24 1222 51 q 1115 -4 1164 -4 q 1092 -3 1101 -4 q 1069 4 1083 -3 l 651 4 q 625 11 636 4 q 606 29 614 18 q 594 53 599 40 q 586 78 589 67 l 581 78 q 556 71 567 78 q 535 55 544 64 q 515 37 525 46 q 493 24 504 28 q 474 16 488 21 q 444 6 460 11 q 414 -3 428 1 q 394 -10 400 -8 l 376 -10 q 281 3 322 -10 q 204 39 239 15 q 141 95 169 63 q 85 169 113 128 q 64 200 76 182 q 40 238 51 218 q 22 276 29 257 q 14 311 14 296 l 14 688 m 111 504 q 119 416 111 461 q 142 329 126 371 q 183 250 158 288 q 243 186 208 213 q 249 181 244 185 q 258 172 253 176 q 269 164 264 168 q 275 158 274 160 q 322 149 292 151 q 371 147 351 147 q 399 150 388 147 q 421 158 411 153 q 441 169 431 163 q 465 186 451 176 q 526 232 501 210 q 564 294 550 254 q 594 412 582 353 q 607 532 607 471 q 599 617 607 569 q 576 712 592 665 q 535 799 560 758 q 476 861 510 839 q 460 871 471 865 q 438 881 449 876 q 417 890 426 886 q 406 894 408 894 l 303 894 q 289 890 299 894 q 275 883 279 886 q 199 815 231 858 q 149 717 168 771 q 120 608 129 664 q 111 504 111 551 "},"โ":{"ha":563,"x_min":14,"x_max":547,"o":"m 14 528 q 36 577 14 556 q 88 599 58 599 q 126 595 107 599 q 165 592 144 592 q 190 592 172 592 q 215 593 208 593 q 236 599 225 599 q 257 599 247 599 q 363 594 310 599 q 469 588 417 589 q 496 581 482 585 q 521 572 510 578 q 540 557 532 567 q 547 532 547 547 q 533 485 547 510 q 492 460 518 460 l 301 460 l 275 451 l 96 451 q 39 474 64 451 q 14 528 14 496 "},"ยข":{"ha":890,"x_min":14,"x_max":875,"o":"m 14 -124 q 29 -81 14 -108 q 65 -22 44 -53 q 107 40 86 10 q 139 88 128 69 q 142 97 140 90 q 144 104 144 103 q 138 122 144 110 q 124 145 132 133 q 108 168 115 157 q 96 186 100 179 q 74 246 81 213 q 68 308 68 279 q 81 424 68 367 q 119 531 93 481 q 182 624 144 582 q 269 697 219 667 q 329 732 296 713 q 394 751 363 751 l 519 751 q 543 746 532 751 q 567 740 554 740 q 594 763 576 740 q 633 819 611 786 q 678 893 654 853 q 725 967 701 933 q 771 1023 749 1000 q 811 1046 793 1046 q 853 1033 831 1046 q 875 1000 875 1021 q 874 992 875 997 q 874 986 874 988 q 827 903 853 943 q 774 825 801 864 q 719 747 746 786 q 672 665 693 708 q 672 641 672 658 q 670 605 671 624 q 668 569 669 586 q 667 544 667 551 q 651 485 664 508 q 617 450 638 463 q 568 432 596 438 q 510 425 540 426 l 504 419 q 489 397 500 413 q 466 363 478 381 q 443 328 454 344 q 428 306 432 311 q 401 269 418 292 q 366 221 383 246 q 336 174 349 196 q 324 140 324 151 q 324 132 324 136 q 329 126 324 128 q 344 126 332 126 q 360 125 357 125 q 461 151 411 125 q 542 218 511 176 q 557 244 550 231 q 572 269 564 257 q 592 288 581 281 q 621 296 604 296 q 658 282 644 296 q 672 246 672 268 q 663 200 672 224 q 640 153 654 176 q 608 112 625 131 q 575 82 590 93 q 565 77 572 81 q 547 69 557 74 q 529 60 538 64 q 519 56 521 57 q 463 15 492 36 q 397 -6 435 -6 q 324 3 363 -6 q 253 22 286 13 q 234 10 240 19 q 221 -10 228 0 q 214 -19 219 -12 q 201 -35 208 -26 q 189 -50 194 -43 q 182 -58 183 -57 q 158 -96 168 -78 q 138 -128 149 -114 q 111 -149 126 -142 q 71 -157 96 -157 q 33 -152 51 -157 q 14 -124 14 -147 m 182 331 q 184 302 182 322 q 190 260 186 282 q 202 223 194 239 q 221 207 210 207 q 222 207 221 207 q 226 208 225 207 q 276 269 260 233 q 314 339 292 304 q 341 376 324 354 q 375 422 358 397 q 404 469 392 446 q 417 510 417 492 l 417 529 q 414 542 417 532 q 411 556 411 553 q 410 578 410 565 q 410 603 411 592 q 402 624 408 615 q 382 632 396 632 q 358 626 365 632 q 335 610 350 621 q 225 488 268 563 q 182 331 182 414 "},"ร":{"ha":846,"x_min":13,"x_max":829,"o":"m 13 79 q 13 91 13 82 q 14 103 14 100 q 40 127 28 119 q 63 140 51 135 q 89 150 75 146 q 122 163 103 154 q 152 201 143 172 q 167 250 161 231 q 180 299 171 264 q 199 372 189 333 q 219 446 210 411 q 232 494 228 481 q 249 554 244 525 q 264 614 253 583 q 309 747 286 681 q 351 881 332 814 q 360 916 356 896 q 374 955 365 936 q 396 987 382 974 q 432 1000 410 1000 q 472 983 457 1000 q 497 944 488 967 q 510 897 506 921 q 519 858 515 874 q 542 762 533 811 q 574 668 550 713 l 704 174 q 720 151 708 160 q 747 138 732 143 q 778 131 763 133 q 803 125 793 128 q 829 74 829 108 q 808 23 829 40 q 756 6 788 6 q 683 8 721 6 q 613 11 646 10 q 571 13 590 11 q 536 20 551 14 q 512 40 521 26 q 503 79 503 54 l 503 103 q 526 122 513 115 q 552 133 539 128 q 576 145 565 139 q 590 163 586 151 q 589 175 590 167 q 585 193 588 183 q 582 211 583 203 q 579 222 581 219 q 575 238 578 226 q 567 261 572 249 q 555 283 561 274 q 542 293 549 293 l 324 293 q 310 284 321 293 q 297 272 299 275 l 258 190 q 258 182 258 189 q 257 172 257 175 q 270 140 257 149 q 299 125 283 132 q 327 106 314 118 q 340 65 340 94 q 319 19 340 33 q 267 6 297 6 q 228 8 247 6 q 189 11 210 11 q 135 6 161 11 q 81 0 108 0 q 31 25 49 0 q 13 79 13 50 m 335 418 q 364 408 350 408 q 397 407 378 407 q 452 411 425 407 q 508 418 479 415 l 514 424 q 515 431 514 425 q 515 440 515 438 q 510 478 515 451 q 495 538 504 506 q 475 606 486 571 q 454 669 464 640 q 438 716 444 697 q 429 735 431 735 q 421 728 424 735 q 417 718 418 721 q 405 686 413 707 q 389 643 397 665 q 374 603 381 621 q 367 582 368 586 q 344 508 356 546 q 333 435 333 471 q 334 426 333 432 q 335 418 335 421 m 182 1161 q 189 1197 182 1179 q 208 1230 196 1215 q 237 1253 221 1244 q 272 1263 253 1263 q 334 1233 317 1263 q 351 1167 351 1204 q 332 1101 351 1131 q 272 1071 313 1071 q 209 1098 236 1071 q 182 1161 182 1125 m 497 1161 q 520 1233 497 1206 q 588 1261 543 1261 q 649 1239 626 1261 q 672 1176 672 1217 q 646 1106 672 1136 q 576 1075 619 1075 q 517 1100 536 1075 q 497 1161 497 1125 "},"ร":{"ha":846,"x_min":13,"x_max":829,"o":"m 13 89 q 13 101 13 92 q 14 113 14 110 q 40 137 28 129 q 63 150 51 144 q 89 160 75 156 q 122 172 103 164 q 152 211 143 182 q 167 260 161 240 q 180 308 171 274 q 199 382 189 343 q 219 456 210 421 q 232 504 228 490 q 249 564 244 535 q 264 624 253 593 q 309 757 286 690 q 351 890 332 824 q 360 926 356 906 q 374 965 365 946 q 396 997 382 983 q 432 1010 410 1010 q 472 993 457 1010 q 497 953 488 976 q 510 907 506 931 q 519 868 515 883 q 542 772 533 821 q 574 678 550 722 l 704 183 q 720 161 708 169 q 747 148 732 153 q 778 140 763 143 q 803 135 793 138 q 829 83 829 118 q 808 33 829 50 q 756 15 788 15 q 683 17 721 15 q 613 21 646 19 q 571 22 590 21 q 536 30 551 24 q 512 50 521 36 q 503 89 503 64 l 503 113 q 526 131 513 125 q 552 143 539 138 q 576 155 565 149 q 590 172 586 161 q 589 185 590 176 q 585 203 588 193 q 582 221 583 213 q 579 232 581 229 q 575 247 578 236 q 567 271 572 258 q 555 293 561 283 q 542 303 549 303 l 324 303 q 310 294 321 303 q 297 282 299 285 l 258 200 q 258 192 258 199 q 257 182 257 185 q 270 150 257 158 q 299 135 283 142 q 327 116 314 128 q 340 75 340 104 q 319 29 340 43 q 267 15 297 15 q 228 18 247 15 q 189 21 210 21 q 135 15 161 21 q 81 10 108 10 q 31 35 49 10 q 13 89 13 60 m 335 428 q 364 417 350 418 q 397 417 378 417 q 452 421 425 417 q 508 428 479 425 l 514 433 q 515 441 514 435 q 515 450 515 447 q 510 488 515 461 q 495 548 504 515 q 475 615 486 581 q 454 678 464 650 q 438 726 444 707 q 429 744 431 744 q 421 738 424 744 q 417 728 418 731 q 405 696 413 717 q 389 653 397 675 q 374 613 381 631 q 367 592 368 596 q 344 518 356 556 q 333 444 333 481 q 334 436 333 442 q 335 428 335 431 m 269 1225 q 284 1301 269 1269 q 324 1368 299 1333 q 375 1388 347 1383 q 431 1392 403 1392 q 545 1347 500 1392 q 590 1231 590 1303 q 578 1170 590 1199 q 544 1119 565 1142 q 495 1083 524 1096 q 435 1069 467 1069 q 373 1081 403 1069 q 320 1114 343 1093 q 283 1163 297 1135 q 269 1225 269 1192 m 376 1235 q 388 1192 376 1206 q 429 1178 400 1178 q 469 1190 457 1178 q 482 1229 482 1201 l 482 1249 q 471 1263 479 1254 q 460 1271 463 1271 l 394 1271 l 378 1254 q 377 1246 378 1254 q 376 1235 376 1238 "},"ร":{"ha":1233,"x_min":14,"x_max":1217,"o":"m 1021 1 l 853 1 q 819 -4 836 -4 q 788 -4 804 -4 q 757 -4 772 -4 q 726 4 742 -4 l 525 4 l 460 24 l 439 44 q 438 53 438 46 q 438 65 438 61 q 451 114 438 97 q 487 138 465 131 q 534 146 508 144 q 585 149 560 147 l 590 154 l 590 274 l 581 285 l 439 285 q 425 281 436 283 q 411 279 414 279 q 392 278 406 279 q 363 276 378 276 q 333 274 347 275 q 314 274 319 274 q 279 226 290 256 q 268 169 268 197 q 269 159 268 167 q 269 149 269 151 q 322 114 299 139 q 346 57 346 89 q 322 18 346 29 q 272 7 299 7 q 232 10 251 7 q 190 13 213 13 q 149 10 169 13 q 108 7 129 7 q 77 10 93 7 q 47 20 61 13 q 23 40 32 28 q 14 69 14 51 q 33 126 14 111 q 77 145 53 140 q 124 156 101 150 q 156 186 147 161 l 253 507 l 264 535 l 363 867 q 385 918 381 892 q 394 965 389 944 q 413 1000 399 986 q 468 1014 428 1014 q 491 1013 482 1014 q 515 1008 500 1013 l 706 1008 q 783 1008 728 1008 q 901 1006 839 1007 q 1019 1003 964 1004 q 1097 1003 1075 1003 q 1127 997 1111 1000 q 1157 985 1143 993 q 1180 967 1171 978 q 1189 938 1189 956 l 1189 632 q 1172 588 1189 608 q 1132 567 1156 567 q 1093 594 1104 567 q 1078 657 1082 621 q 1074 729 1074 693 q 1069 785 1074 765 q 1060 806 1067 793 q 1042 832 1053 819 q 1020 853 1032 844 q 999 861 1008 861 q 962 862 988 861 q 906 864 936 863 q 850 866 876 865 q 814 867 824 867 l 788 867 q 770 867 782 867 q 747 867 758 868 q 726 862 735 865 q 717 850 717 858 l 717 594 q 724 584 717 585 q 738 583 732 583 q 771 587 751 583 q 810 598 790 590 q 847 615 829 606 q 874 638 864 625 q 878 681 878 654 q 883 733 879 707 q 899 777 888 758 q 933 796 910 796 q 968 781 953 796 q 983 747 983 767 l 983 279 q 970 246 983 257 q 936 235 957 235 q 898 251 911 235 q 880 290 885 267 q 874 337 875 313 q 874 376 874 361 q 863 397 871 383 q 844 424 854 411 q 822 448 833 438 q 803 458 811 458 l 732 458 l 717 442 l 717 158 q 730 141 717 144 q 753 138 743 138 l 771 138 q 824 139 786 138 q 904 142 861 140 q 985 146 947 144 q 1038 149 1022 147 l 1075 186 q 1081 192 1078 189 q 1083 197 1083 196 l 1083 344 q 1099 396 1083 369 q 1143 422 1115 422 q 1184 400 1165 422 q 1203 356 1203 378 l 1203 175 q 1215 128 1214 153 q 1217 78 1217 103 q 1192 24 1217 47 q 1140 -10 1167 1 q 1120 -10 1136 -10 q 1100 -11 1104 -11 q 1059 -10 1078 -11 q 1021 1 1040 -10 m 346 433 q 359 415 346 421 q 383 410 372 410 l 593 410 l 593 758 q 602 786 601 772 q 603 815 603 800 q 602 830 603 818 q 601 844 601 842 q 585 865 594 864 q 561 867 575 867 q 501 858 522 867 q 465 813 481 849 q 447 763 460 799 q 421 688 435 728 q 395 611 407 647 q 379 561 383 575 q 372 538 376 554 q 361 502 367 521 q 351 466 356 483 q 346 442 347 449 l 346 433 "},"ร":{"ha":754,"x_min":14,"x_max":738,"o":"m 365 1050 q 418 1044 394 1050 q 464 1029 442 1039 q 508 1005 486 1019 q 553 972 529 990 q 578 956 564 964 q 601 935 593 947 q 632 884 618 910 q 667 838 646 858 q 718 697 699 768 q 738 551 738 626 q 726 401 738 478 q 685 255 714 324 q 606 131 656 186 q 482 47 557 76 q 454 34 465 40 q 433 22 443 28 q 410 13 422 17 q 376 10 397 10 q 315 21 340 10 q 258 47 289 32 q 244 54 256 49 q 221 66 233 60 q 197 78 208 72 q 182 86 185 83 q 133 133 157 103 q 90 199 110 164 q 54 269 69 235 q 31 331 39 304 q 25 347 28 336 q 20 367 22 357 q 16 386 18 378 q 14 396 14 394 l 14 619 q 17 635 14 621 q 25 666 21 649 q 34 701 29 683 q 42 728 39 718 q 86 844 60 786 q 151 947 113 901 q 243 1022 190 993 q 365 1050 296 1050 m 133 532 q 142 424 133 479 q 167 319 150 369 q 185 282 171 307 q 219 233 200 257 q 257 192 238 210 q 292 174 276 174 l 428 174 q 488 195 461 174 q 533 247 514 217 q 565 310 553 276 q 585 369 578 344 q 599 403 592 389 q 607 440 607 417 l 607 619 q 591 688 599 656 q 571 750 583 721 q 539 806 558 779 q 488 858 519 833 q 433 901 457 882 q 371 919 410 919 q 265 876 310 919 q 192 772 221 833 q 148 644 163 711 q 133 532 133 578 m 117 1215 q 124 1251 117 1233 q 143 1284 131 1269 q 172 1308 156 1299 q 207 1317 188 1317 q 269 1288 251 1317 q 286 1221 286 1258 q 267 1155 286 1185 q 207 1125 249 1125 q 144 1152 171 1125 q 117 1215 117 1179 m 432 1215 q 455 1288 432 1260 q 522 1317 478 1317 q 584 1294 561 1317 q 607 1232 607 1272 q 581 1160 607 1192 q 513 1129 554 1129 q 452 1154 472 1129 q 432 1215 432 1179 "},"ร":{"ha":846,"x_min":14,"x_max":829,"o":"m 14 24 q 31 68 14 36 q 72 135 49 100 q 121 203 96 171 q 161 246 146 235 q 125 319 143 276 q 107 399 107 363 l 107 621 q 110 637 107 624 q 117 667 113 650 q 126 702 121 685 q 133 729 131 719 q 178 845 151 788 q 244 949 206 903 q 335 1023 283 994 q 457 1051 388 1051 q 496 1051 483 1051 q 531 1044 510 1051 q 556 1031 542 1040 q 586 1010 571 1021 q 615 992 601 1000 q 636 985 628 985 q 649 996 640 985 q 669 1022 658 1007 q 690 1049 679 1036 q 704 1067 700 1063 l 735 1067 q 767 1066 750 1067 q 797 1056 783 1065 q 801 1040 799 1053 q 803 1024 803 1026 q 792 992 801 1008 q 769 959 782 975 q 745 928 757 943 q 726 904 733 914 q 726 900 726 903 q 725 896 725 897 q 737 865 725 881 q 758 839 749 849 q 810 699 790 769 q 829 553 829 628 q 817 402 829 479 q 776 256 806 325 q 698 133 747 188 q 574 50 649 78 q 546 37 557 43 q 525 24 535 31 q 502 15 515 18 q 468 11 489 11 q 403 24 440 11 q 330 55 365 36 q 265 97 294 74 q 226 143 236 121 q 189 98 203 124 q 160 48 175 72 q 124 7 144 24 q 71 -10 104 -10 q 33 -5 51 -10 q 14 24 14 0 m 301 263 q 310 235 301 250 q 331 207 318 221 q 357 184 343 193 q 383 175 371 175 l 519 175 q 579 197 553 175 q 625 248 606 218 q 657 312 644 278 q 676 371 669 346 q 691 405 683 392 q 699 442 699 418 l 699 621 q 689 665 693 644 q 679 703 685 685 q 665 742 674 722 q 644 783 657 761 q 632 775 638 783 q 622 756 626 767 q 615 733 618 744 q 607 718 611 722 q 594 707 603 715 q 576 689 586 699 q 558 671 567 679 q 547 658 550 663 q 542 647 547 657 q 531 627 536 638 q 519 608 525 617 q 514 599 514 599 q 502 593 507 594 q 492 583 497 592 q 490 572 492 581 q 488 561 488 563 q 474 551 483 553 q 460 539 464 549 q 456 523 454 528 q 449 513 457 518 q 443 510 447 511 q 438 507 439 508 q 433 493 438 506 q 426 474 429 481 q 424 463 426 472 q 422 453 422 454 q 373 366 400 410 q 318 283 346 322 q 307 275 313 276 q 301 263 301 274 m 225 533 q 225 496 225 518 q 227 452 225 475 q 234 409 229 429 q 247 376 239 389 q 267 397 258 383 q 284 427 276 411 q 299 458 292 443 q 313 485 306 474 q 348 529 328 510 q 383 572 368 549 q 388 582 388 578 q 389 589 389 586 q 390 594 389 592 q 394 599 390 596 q 410 618 408 608 q 422 643 411 628 q 475 719 450 682 q 519 800 500 757 q 543 833 528 819 q 558 871 558 846 q 547 892 558 882 q 519 908 535 901 q 488 917 504 914 q 463 921 471 921 q 357 878 401 921 q 283 774 313 835 q 240 646 254 713 q 225 533 225 579 "},"ร":{"ha":835,"x_min":14,"x_max":819,"o":"m 14 69 q 32 122 14 100 q 82 143 50 143 q 122 140 103 143 q 164 136 142 136 q 184 137 168 136 q 204 138 200 138 q 217 156 211 142 q 224 175 224 169 l 224 746 q 234 795 235 768 q 236 843 233 822 q 263 910 240 881 q 316 959 285 939 q 383 990 347 979 q 451 1001 418 1001 q 576 967 522 1001 q 676 882 629 932 q 708 809 696 853 q 721 732 721 765 q 713 676 721 704 q 693 621 704 647 q 680 600 689 610 q 671 578 671 590 q 684 563 671 575 q 714 534 697 550 q 745 504 731 518 q 764 485 760 490 q 805 407 790 450 q 819 319 819 364 q 813 260 819 292 q 795 199 806 229 q 770 140 785 168 q 742 89 756 111 q 721 69 732 72 q 693 56 710 67 q 633 15 664 35 q 563 -4 603 -4 l 438 -4 q 394 17 410 -4 q 378 63 378 38 q 390 103 378 83 q 426 121 401 124 q 497 119 458 118 q 571 128 535 119 q 637 158 607 138 q 682 214 667 178 q 692 236 686 221 q 699 251 699 251 l 699 365 q 695 373 699 365 q 686 391 692 381 q 676 413 681 401 q 667 431 671 424 q 642 454 658 446 q 611 474 625 463 q 604 480 610 475 q 592 490 599 485 q 581 501 586 496 q 574 507 575 506 q 567 513 571 510 q 563 515 563 515 l 406 515 q 375 528 389 515 q 361 557 361 542 q 381 602 361 589 q 430 621 401 615 q 488 628 458 626 q 536 638 517 629 q 551 646 542 640 q 569 659 561 651 q 584 675 578 667 q 590 692 590 683 l 590 789 q 581 808 590 797 q 558 828 571 818 q 533 846 546 838 q 514 860 521 854 l 389 860 q 371 849 379 860 q 356 825 363 839 q 347 797 350 811 q 343 778 343 783 l 343 44 q 313 17 343 26 q 244 2 283 7 q 169 -3 206 -3 q 119 -4 133 -4 q 81 -1 100 -4 q 47 9 61 1 q 23 31 32 17 q 14 69 14 46 "},"รค":{"ha":775,"x_min":14,"x_max":758,"o":"m 14 215 q 47 348 14 301 q 131 416 81 394 q 240 442 181 438 q 349 451 299 447 q 432 467 399 456 q 465 511 465 478 q 457 556 465 535 q 426 589 449 576 q 401 601 418 593 q 383 610 385 610 l 253 610 q 238 598 242 610 q 230 569 233 586 q 222 531 226 551 q 209 492 218 510 q 183 463 200 475 q 136 451 165 451 q 63 481 92 451 q 35 553 35 510 q 43 597 35 578 q 65 633 51 617 q 97 665 79 650 q 133 692 115 679 q 165 716 149 703 q 204 729 182 729 l 417 729 q 459 714 435 729 q 506 678 483 699 q 547 633 529 657 q 568 593 564 610 q 572 578 569 589 q 578 555 575 567 q 583 533 581 543 q 585 518 585 522 l 585 475 q 585 437 585 458 q 579 399 586 415 l 579 164 q 613 125 579 125 q 640 144 635 125 q 650 188 646 164 q 663 232 654 213 q 701 251 672 251 q 728 243 717 251 q 746 222 739 235 q 756 195 753 210 q 758 167 758 181 q 749 106 758 136 q 722 51 739 75 q 678 11 704 26 q 619 -4 653 -4 q 574 2 593 -4 q 531 24 554 8 q 516 37 522 28 q 503 55 510 46 q 490 71 497 64 q 472 78 482 78 l 465 78 q 426 54 446 68 q 385 27 406 40 q 342 5 364 14 q 296 -4 319 -4 l 171 -4 q 144 3 156 -4 q 122 18 133 11 q 40 101 65 51 q 14 215 14 150 m 122 217 q 126 190 122 206 q 138 160 131 175 q 157 136 146 146 q 182 126 168 126 l 324 126 q 333 131 325 126 q 346 138 340 135 q 359 146 349 140 q 372 153 369 151 q 442 225 424 188 q 460 322 460 263 l 460 339 q 454 341 458 339 q 449 343 450 343 q 448 344 449 343 q 446 344 447 344 l 443 343 q 420 340 439 343 q 381 333 401 336 q 341 326 360 329 q 318 322 322 322 q 251 314 285 317 q 182 306 217 311 q 150 283 164 304 q 133 253 143 274 q 122 217 122 232 m 85 928 q 92 964 85 946 q 111 997 99 982 q 140 1020 124 1011 q 175 1029 156 1029 q 235 1000 218 1029 q 253 933 253 971 q 234 867 253 897 q 174 838 215 838 q 111 865 138 838 q 85 928 85 892 m 400 928 q 422 1001 400 972 q 489 1029 444 1029 q 551 1007 528 1029 q 574 944 574 985 q 547 874 574 904 q 479 843 521 843 q 419 867 439 843 q 400 928 400 892 "},"รฅ":{"ha":775,"x_min":14,"x_max":758,"o":"m 14 219 q 47 352 14 306 q 131 420 81 399 q 240 447 181 442 q 349 456 299 451 q 432 471 399 460 q 465 515 465 482 q 457 560 465 539 q 426 593 449 581 q 401 606 418 597 q 383 614 385 614 l 253 614 q 238 602 242 614 q 230 573 233 590 q 222 535 226 556 q 209 497 218 514 q 183 467 200 479 q 136 456 165 456 q 63 485 92 456 q 35 557 35 514 q 43 601 35 582 q 65 638 51 621 q 97 669 79 654 q 133 696 115 683 q 165 720 149 707 q 204 733 182 733 l 417 733 q 459 718 435 733 q 506 682 483 703 q 547 638 529 661 q 568 597 564 614 q 572 582 569 593 q 578 559 575 571 q 583 537 581 547 q 585 522 585 526 l 585 479 q 585 441 585 463 q 579 403 586 419 l 579 168 q 613 129 579 129 q 640 149 635 129 q 650 192 646 168 q 663 236 654 217 q 701 256 672 256 q 728 247 717 256 q 746 226 739 239 q 756 199 753 214 q 758 171 758 185 q 749 110 758 140 q 722 55 739 79 q 678 15 704 31 q 619 0 653 0 q 574 6 593 0 q 531 28 554 13 q 516 41 522 32 q 503 59 510 50 q 490 75 497 68 q 472 82 482 82 l 465 82 q 426 58 446 72 q 385 31 406 44 q 342 9 364 18 q 296 0 319 0 l 171 0 q 144 8 156 0 q 122 22 133 15 q 40 105 65 56 q 14 219 14 154 m 122 221 q 126 194 122 210 q 138 165 131 179 q 157 140 146 150 q 182 131 168 131 l 324 131 q 333 135 325 131 q 346 142 340 139 q 359 150 349 144 q 372 157 369 156 q 442 229 424 192 q 460 326 460 267 l 460 343 q 454 345 458 343 q 449 347 450 347 q 448 348 449 347 q 446 349 447 349 l 443 347 q 420 344 439 347 q 381 337 401 340 q 341 330 360 333 q 318 326 322 326 q 251 318 285 321 q 182 310 217 315 q 150 288 164 308 q 133 257 143 278 q 122 221 122 236 m 150 943 q 165 1019 150 988 q 204 1088 179 1051 q 256 1106 228 1101 q 310 1110 283 1110 q 426 1065 381 1110 q 471 949 471 1021 q 458 888 471 917 q 425 837 446 860 q 376 801 404 814 q 315 788 347 788 q 253 800 283 788 q 201 833 224 813 q 164 883 178 854 q 150 943 150 911 m 257 953 q 269 910 257 924 q 310 896 281 896 q 363 947 363 896 q 363 958 363 951 q 361 968 363 967 q 351 981 360 972 q 340 989 343 989 l 275 989 l 258 972 q 258 964 258 972 q 257 953 257 956 "},"รถ":{"ha":678,"x_min":14,"x_max":663,"o":"m 14 382 q 33 533 14 460 q 92 664 51 607 q 195 755 132 721 q 346 789 258 789 q 461 763 413 789 q 558 696 510 738 q 561 692 560 694 q 564 690 563 690 q 598 627 581 658 q 630 563 615 596 q 653 497 644 531 q 663 426 663 463 q 662 410 663 422 q 661 396 661 399 q 653 366 658 388 q 642 320 649 344 q 631 274 636 296 q 624 243 625 251 q 585 164 613 206 q 522 88 558 122 q 444 32 486 54 q 360 10 401 10 q 328 13 339 10 q 309 19 317 15 q 293 28 301 24 q 269 38 285 33 q 243 42 263 39 q 215 47 224 44 q 197 56 208 50 q 173 69 185 63 q 151 80 161 75 q 139 86 140 85 q 88 142 111 104 q 49 222 65 179 q 23 308 32 265 q 14 382 14 351 m 133 381 q 135 350 133 369 q 142 311 138 331 q 152 274 146 292 q 167 249 158 257 l 232 183 q 240 181 232 183 q 256 178 247 179 q 275 175 265 176 q 292 174 285 174 q 311 172 293 172 q 340 172 331 172 q 388 173 368 172 q 433 183 408 174 q 513 288 493 232 q 532 418 532 344 q 523 498 532 461 q 499 575 514 535 q 476 605 492 593 q 441 626 460 617 q 402 642 422 635 q 368 657 382 649 l 281 657 q 263 647 279 657 q 238 631 246 636 q 184 579 204 607 q 152 520 164 551 q 137 454 140 489 q 133 381 133 419 m 68 943 q 75 979 68 961 q 94 1012 82 997 q 123 1035 107 1026 q 158 1044 139 1044 q 220 1015 203 1044 q 238 949 238 986 q 218 883 238 913 q 158 853 199 853 q 95 880 122 853 q 68 943 68 907 m 383 943 q 406 1015 383 988 q 474 1043 429 1043 q 535 1021 513 1043 q 558 958 558 999 q 532 888 558 918 q 463 857 506 857 q 403 882 422 857 q 383 943 383 907 "},"รธ":{"ha":699,"x_min":14,"x_max":683,"o":"m 14 -4 q 26 35 14 15 q 55 72 39 54 q 83 108 71 90 q 96 144 96 126 l 96 147 q 53 252 72 201 q 35 361 35 303 q 53 513 35 439 q 113 642 72 586 q 217 733 154 699 q 367 767 279 767 q 435 753 403 767 q 500 739 467 739 q 515 758 506 739 q 538 799 524 776 q 571 838 551 821 q 617 853 590 856 q 654 841 636 851 q 672 807 672 831 q 657 778 672 792 q 633 750 642 764 q 624 729 626 740 q 617 707 621 718 q 601 688 613 696 q 589 669 589 679 q 603 628 589 647 q 628 593 617 610 q 667 501 651 553 q 683 406 683 450 q 683 390 683 403 q 682 375 682 378 q 674 345 679 367 q 663 299 669 324 q 651 253 657 275 q 644 224 646 232 q 606 143 633 185 q 543 67 579 101 q 465 11 507 33 q 381 -11 422 -11 q 349 -8 360 -11 q 331 -1 339 -6 q 315 8 324 3 q 290 17 307 13 q 240 31 260 24 q 188 50 219 39 l 182 50 l 176 50 q 156 15 165 31 q 135 -12 146 -1 q 108 -31 124 -24 q 71 -37 93 -37 q 33 -33 51 -37 q 14 -4 14 -28 m 253 164 q 308 153 285 154 q 363 151 331 151 q 410 153 390 151 q 454 164 431 154 q 533 268 514 213 q 553 397 553 324 q 544 478 553 442 q 519 554 535 514 q 514 560 518 557 q 508 565 510 564 l 506 565 q 492 552 494 565 q 486 533 489 539 q 474 523 483 525 q 460 511 464 521 q 455 495 453 500 q 449 483 457 490 q 443 481 447 483 q 438 479 439 479 q 433 465 438 478 q 426 446 429 453 q 424 435 426 444 q 421 424 422 426 q 373 338 400 381 q 318 256 346 294 q 305 240 315 251 q 283 213 294 228 q 262 186 271 199 q 253 169 253 174 l 253 164 m 154 360 q 160 307 154 332 q 176 256 167 282 l 179 256 l 182 256 q 185 260 183 257 q 188 267 186 264 q 218 315 200 297 q 258 360 236 332 q 287 407 275 381 q 313 457 299 433 q 354 510 332 486 q 389 565 376 535 q 399 578 393 575 q 411 593 406 581 q 416 606 413 596 q 421 619 419 617 l 389 636 l 301 636 q 283 626 300 636 q 258 608 267 615 q 173 499 192 561 q 154 360 154 438 "},"๎":{"ha":0,"x_min":0,"x_max":0,"o":""},"๎":{"ha":694,"x_min":0,"x_max":0,"o":""},"๎":{"ha":797,"x_min":14,"x_max":781,"o":"m 488 294 l 335 593 l 324 610 l 182 886 q 177 894 181 889 q 172 903 174 900 q 90 1048 133 975 q 14 1196 47 1121 l 14 1207 q 24 1231 14 1222 q 48 1244 33 1240 q 78 1250 63 1249 q 104 1251 93 1251 q 150 1224 133 1251 q 158 1204 151 1218 q 171 1174 164 1190 q 184 1145 178 1158 q 193 1126 190 1132 q 325 885 256 1003 q 454 642 394 767 q 524 490 490 567 q 601 343 558 414 q 628 285 617 315 q 656 229 639 256 q 704 151 679 190 q 749 71 729 113 q 761 41 753 60 q 774 9 769 22 q 781 -6 779 -4 l 781 -43 q 772 -55 781 -51 q 751 -59 763 -58 q 731 -60 740 -60 q 718 -60 721 -60 q 689 -60 707 -60 q 661 -49 672 -60 q 626 8 638 -25 q 601 71 614 40 q 563 151 585 111 q 519 229 542 192 q 504 262 510 244 q 488 294 499 279 "}}}
